G04 EAGLE Gerber RS-274X export*
G75*
%MOMM*%
%FSLAX34Y34*%
%LPD*%
%INTop Soldermask*%
%IPPOS*%
%AMOC8*
5,1,8,0,0,1.08239X$1,22.5*%
G01*
%ADD10R,1.653200X0.603200*%
%ADD11C,1.053200*%
%ADD12R,1.700000X2.000000*%
%ADD13R,1.700000X2.700000*%
%ADD14R,0.503200X1.653200*%
%ADD15R,1.678200X0.503200*%
%ADD16R,1.625600X0.431800*%
%ADD17R,0.431800X1.625600*%
%ADD18R,1.303200X1.203200*%
%ADD19R,1.203200X1.303200*%
%ADD20C,3.378200*%
%ADD21C,2.133600*%
%ADD22R,1.753200X1.503200*%
%ADD23C,2.082800*%
%ADD24R,0.753200X1.403200*%
%ADD25R,0.833200X1.033200*%
%ADD26C,0.505344*%


D10*
X47570Y381000D03*
X47570Y387500D03*
X47570Y394000D03*
X47570Y374500D03*
X47570Y368000D03*
D11*
X42320Y400000D03*
X42320Y362000D03*
D12*
X20320Y417840D03*
X20320Y344160D03*
D13*
X20320Y381000D03*
D14*
X209900Y406050D03*
X204900Y406050D03*
X199900Y406050D03*
X194900Y406050D03*
X189900Y406050D03*
X184900Y406050D03*
X179900Y406050D03*
X174900Y406050D03*
X169900Y406050D03*
X164900Y406050D03*
X159900Y406050D03*
X154900Y406050D03*
X149900Y406050D03*
X144900Y406050D03*
X139900Y406050D03*
X134900Y406050D03*
X129900Y406050D03*
X124900Y406050D03*
X119900Y406050D03*
X114900Y406050D03*
X109900Y406050D03*
X104900Y406050D03*
X99900Y406050D03*
X94900Y406050D03*
X94900Y330550D03*
X99900Y330550D03*
X104900Y330550D03*
X109900Y330550D03*
X114900Y330550D03*
X119900Y330550D03*
X124900Y330550D03*
X129900Y330550D03*
X134900Y330550D03*
X139900Y330550D03*
X144900Y330550D03*
X149900Y330550D03*
X154900Y330550D03*
X159900Y330550D03*
X164900Y330550D03*
X169900Y330550D03*
X174900Y330550D03*
X179900Y330550D03*
X184900Y330550D03*
X189900Y330550D03*
X194900Y330550D03*
X199900Y330550D03*
X204900Y330550D03*
X209900Y330550D03*
D15*
G36*
X75670Y144264D02*
X63804Y132398D01*
X60246Y135956D01*
X72112Y147822D01*
X75670Y144264D01*
G37*
G36*
X79205Y140729D02*
X67339Y128863D01*
X63781Y132421D01*
X75647Y144287D01*
X79205Y140729D01*
G37*
G36*
X82741Y137193D02*
X70875Y125327D01*
X67317Y128885D01*
X79183Y140751D01*
X82741Y137193D01*
G37*
G36*
X86276Y133658D02*
X74410Y121792D01*
X70852Y125350D01*
X82718Y137216D01*
X86276Y133658D01*
G37*
G36*
X89812Y130122D02*
X77946Y118256D01*
X74388Y121814D01*
X86254Y133680D01*
X89812Y130122D01*
G37*
G36*
X93347Y126587D02*
X81481Y114721D01*
X77923Y118279D01*
X89789Y130145D01*
X93347Y126587D01*
G37*
G36*
X96883Y123051D02*
X85017Y111185D01*
X81459Y114743D01*
X93325Y126609D01*
X96883Y123051D01*
G37*
G36*
X100418Y119516D02*
X88552Y107650D01*
X84994Y111208D01*
X96860Y123074D01*
X100418Y119516D01*
G37*
G36*
X103954Y115980D02*
X92088Y104114D01*
X88530Y107672D01*
X100396Y119538D01*
X103954Y115980D01*
G37*
G36*
X107489Y112445D02*
X95623Y100579D01*
X92065Y104137D01*
X103931Y116003D01*
X107489Y112445D01*
G37*
G36*
X111025Y108909D02*
X99159Y97043D01*
X95601Y100601D01*
X107467Y112467D01*
X111025Y108909D01*
G37*
G36*
X114561Y105374D02*
X102695Y93508D01*
X99137Y97066D01*
X111003Y108932D01*
X114561Y105374D01*
G37*
G36*
X118096Y101838D02*
X106230Y89972D01*
X102672Y93530D01*
X114538Y105396D01*
X118096Y101838D01*
G37*
G36*
X121632Y98303D02*
X109766Y86437D01*
X106208Y89995D01*
X118074Y101861D01*
X121632Y98303D01*
G37*
G36*
X125167Y94767D02*
X113301Y82901D01*
X109743Y86459D01*
X121609Y98325D01*
X125167Y94767D01*
G37*
G36*
X128703Y91231D02*
X116837Y79365D01*
X113279Y82923D01*
X125145Y94789D01*
X128703Y91231D01*
G37*
G36*
X132238Y87696D02*
X120372Y75830D01*
X116814Y79388D01*
X128680Y91254D01*
X132238Y87696D01*
G37*
G36*
X135774Y84160D02*
X123908Y72294D01*
X120350Y75852D01*
X132216Y87718D01*
X135774Y84160D01*
G37*
G36*
X139309Y80625D02*
X127443Y68759D01*
X123885Y72317D01*
X135751Y84183D01*
X139309Y80625D01*
G37*
G36*
X142845Y77089D02*
X130979Y65223D01*
X127421Y68781D01*
X139287Y80647D01*
X142845Y77089D01*
G37*
G36*
X146380Y73554D02*
X134514Y61688D01*
X130956Y65246D01*
X142822Y77112D01*
X146380Y73554D01*
G37*
G36*
X149916Y70018D02*
X138050Y58152D01*
X134492Y61710D01*
X146358Y73576D01*
X149916Y70018D01*
G37*
G36*
X153451Y66483D02*
X141585Y54617D01*
X138027Y58175D01*
X149893Y70041D01*
X153451Y66483D01*
G37*
G36*
X156987Y62947D02*
X145121Y51081D01*
X141563Y54639D01*
X153429Y66505D01*
X156987Y62947D01*
G37*
G36*
X160522Y59412D02*
X148656Y47546D01*
X145098Y51104D01*
X156964Y62970D01*
X160522Y59412D01*
G37*
G36*
X173236Y62970D02*
X185102Y51104D01*
X181544Y47546D01*
X169678Y59412D01*
X173236Y62970D01*
G37*
G36*
X176771Y66505D02*
X188637Y54639D01*
X185079Y51081D01*
X173213Y62947D01*
X176771Y66505D01*
G37*
G36*
X180307Y70041D02*
X192173Y58175D01*
X188615Y54617D01*
X176749Y66483D01*
X180307Y70041D01*
G37*
G36*
X183842Y73576D02*
X195708Y61710D01*
X192150Y58152D01*
X180284Y70018D01*
X183842Y73576D01*
G37*
G36*
X187378Y77112D02*
X199244Y65246D01*
X195686Y61688D01*
X183820Y73554D01*
X187378Y77112D01*
G37*
G36*
X190913Y80647D02*
X202779Y68781D01*
X199221Y65223D01*
X187355Y77089D01*
X190913Y80647D01*
G37*
G36*
X194449Y84183D02*
X206315Y72317D01*
X202757Y68759D01*
X190891Y80625D01*
X194449Y84183D01*
G37*
G36*
X197984Y87718D02*
X209850Y75852D01*
X206292Y72294D01*
X194426Y84160D01*
X197984Y87718D01*
G37*
G36*
X201520Y91254D02*
X213386Y79388D01*
X209828Y75830D01*
X197962Y87696D01*
X201520Y91254D01*
G37*
G36*
X205055Y94789D02*
X216921Y82923D01*
X213363Y79365D01*
X201497Y91231D01*
X205055Y94789D01*
G37*
G36*
X208591Y98325D02*
X220457Y86459D01*
X216899Y82901D01*
X205033Y94767D01*
X208591Y98325D01*
G37*
G36*
X212126Y101861D02*
X223992Y89995D01*
X220434Y86437D01*
X208568Y98303D01*
X212126Y101861D01*
G37*
G36*
X215662Y105396D02*
X227528Y93530D01*
X223970Y89972D01*
X212104Y101838D01*
X215662Y105396D01*
G37*
G36*
X219197Y108932D02*
X231063Y97066D01*
X227505Y93508D01*
X215639Y105374D01*
X219197Y108932D01*
G37*
G36*
X222733Y112467D02*
X234599Y100601D01*
X231041Y97043D01*
X219175Y108909D01*
X222733Y112467D01*
G37*
G36*
X226269Y116003D02*
X238135Y104137D01*
X234577Y100579D01*
X222711Y112445D01*
X226269Y116003D01*
G37*
G36*
X229804Y119538D02*
X241670Y107672D01*
X238112Y104114D01*
X226246Y115980D01*
X229804Y119538D01*
G37*
G36*
X233340Y123074D02*
X245206Y111208D01*
X241648Y107650D01*
X229782Y119516D01*
X233340Y123074D01*
G37*
G36*
X236875Y126609D02*
X248741Y114743D01*
X245183Y111185D01*
X233317Y123051D01*
X236875Y126609D01*
G37*
G36*
X240411Y130145D02*
X252277Y118279D01*
X248719Y114721D01*
X236853Y126587D01*
X240411Y130145D01*
G37*
G36*
X243946Y133680D02*
X255812Y121814D01*
X252254Y118256D01*
X240388Y130122D01*
X243946Y133680D01*
G37*
G36*
X247482Y137216D02*
X259348Y125350D01*
X255790Y121792D01*
X243924Y133658D01*
X247482Y137216D01*
G37*
G36*
X251017Y140751D02*
X262883Y128885D01*
X259325Y125327D01*
X247459Y137193D01*
X251017Y140751D01*
G37*
G36*
X254553Y144287D02*
X266419Y132421D01*
X262861Y128863D01*
X250995Y140729D01*
X254553Y144287D01*
G37*
G36*
X258088Y147822D02*
X269954Y135956D01*
X266396Y132398D01*
X254530Y144264D01*
X258088Y147822D01*
G37*
G36*
X269954Y168844D02*
X258088Y156978D01*
X254530Y160536D01*
X266396Y172402D01*
X269954Y168844D01*
G37*
G36*
X266419Y172379D02*
X254553Y160513D01*
X250995Y164071D01*
X262861Y175937D01*
X266419Y172379D01*
G37*
G36*
X262883Y175915D02*
X251017Y164049D01*
X247459Y167607D01*
X259325Y179473D01*
X262883Y175915D01*
G37*
G36*
X259348Y179450D02*
X247482Y167584D01*
X243924Y171142D01*
X255790Y183008D01*
X259348Y179450D01*
G37*
G36*
X255812Y182986D02*
X243946Y171120D01*
X240388Y174678D01*
X252254Y186544D01*
X255812Y182986D01*
G37*
G36*
X252277Y186521D02*
X240411Y174655D01*
X236853Y178213D01*
X248719Y190079D01*
X252277Y186521D01*
G37*
G36*
X248741Y190057D02*
X236875Y178191D01*
X233317Y181749D01*
X245183Y193615D01*
X248741Y190057D01*
G37*
G36*
X245206Y193592D02*
X233340Y181726D01*
X229782Y185284D01*
X241648Y197150D01*
X245206Y193592D01*
G37*
G36*
X241670Y197128D02*
X229804Y185262D01*
X226246Y188820D01*
X238112Y200686D01*
X241670Y197128D01*
G37*
G36*
X238135Y200663D02*
X226269Y188797D01*
X222711Y192355D01*
X234577Y204221D01*
X238135Y200663D01*
G37*
G36*
X234599Y204199D02*
X222733Y192333D01*
X219175Y195891D01*
X231041Y207757D01*
X234599Y204199D01*
G37*
G36*
X231063Y207734D02*
X219197Y195868D01*
X215639Y199426D01*
X227505Y211292D01*
X231063Y207734D01*
G37*
G36*
X227528Y211270D02*
X215662Y199404D01*
X212104Y202962D01*
X223970Y214828D01*
X227528Y211270D01*
G37*
G36*
X223992Y214805D02*
X212126Y202939D01*
X208568Y206497D01*
X220434Y218363D01*
X223992Y214805D01*
G37*
G36*
X220457Y218341D02*
X208591Y206475D01*
X205033Y210033D01*
X216899Y221899D01*
X220457Y218341D01*
G37*
G36*
X216921Y221877D02*
X205055Y210011D01*
X201497Y213569D01*
X213363Y225435D01*
X216921Y221877D01*
G37*
G36*
X213386Y225412D02*
X201520Y213546D01*
X197962Y217104D01*
X209828Y228970D01*
X213386Y225412D01*
G37*
G36*
X209850Y228948D02*
X197984Y217082D01*
X194426Y220640D01*
X206292Y232506D01*
X209850Y228948D01*
G37*
G36*
X206315Y232483D02*
X194449Y220617D01*
X190891Y224175D01*
X202757Y236041D01*
X206315Y232483D01*
G37*
G36*
X202779Y236019D02*
X190913Y224153D01*
X187355Y227711D01*
X199221Y239577D01*
X202779Y236019D01*
G37*
G36*
X199244Y239554D02*
X187378Y227688D01*
X183820Y231246D01*
X195686Y243112D01*
X199244Y239554D01*
G37*
G36*
X195708Y243090D02*
X183842Y231224D01*
X180284Y234782D01*
X192150Y246648D01*
X195708Y243090D01*
G37*
G36*
X192173Y246625D02*
X180307Y234759D01*
X176749Y238317D01*
X188615Y250183D01*
X192173Y246625D01*
G37*
G36*
X188637Y250161D02*
X176771Y238295D01*
X173213Y241853D01*
X185079Y253719D01*
X188637Y250161D01*
G37*
G36*
X185102Y253696D02*
X173236Y241830D01*
X169678Y245388D01*
X181544Y257254D01*
X185102Y253696D01*
G37*
G36*
X148656Y257254D02*
X160522Y245388D01*
X156964Y241830D01*
X145098Y253696D01*
X148656Y257254D01*
G37*
G36*
X145121Y253719D02*
X156987Y241853D01*
X153429Y238295D01*
X141563Y250161D01*
X145121Y253719D01*
G37*
G36*
X141585Y250183D02*
X153451Y238317D01*
X149893Y234759D01*
X138027Y246625D01*
X141585Y250183D01*
G37*
G36*
X138050Y246648D02*
X149916Y234782D01*
X146358Y231224D01*
X134492Y243090D01*
X138050Y246648D01*
G37*
G36*
X134514Y243112D02*
X146380Y231246D01*
X142822Y227688D01*
X130956Y239554D01*
X134514Y243112D01*
G37*
G36*
X130979Y239577D02*
X142845Y227711D01*
X139287Y224153D01*
X127421Y236019D01*
X130979Y239577D01*
G37*
G36*
X127443Y236041D02*
X139309Y224175D01*
X135751Y220617D01*
X123885Y232483D01*
X127443Y236041D01*
G37*
G36*
X123908Y232506D02*
X135774Y220640D01*
X132216Y217082D01*
X120350Y228948D01*
X123908Y232506D01*
G37*
G36*
X120372Y228970D02*
X132238Y217104D01*
X128680Y213546D01*
X116814Y225412D01*
X120372Y228970D01*
G37*
G36*
X116837Y225435D02*
X128703Y213569D01*
X125145Y210011D01*
X113279Y221877D01*
X116837Y225435D01*
G37*
G36*
X113301Y221899D02*
X125167Y210033D01*
X121609Y206475D01*
X109743Y218341D01*
X113301Y221899D01*
G37*
G36*
X109766Y218363D02*
X121632Y206497D01*
X118074Y202939D01*
X106208Y214805D01*
X109766Y218363D01*
G37*
G36*
X106230Y214828D02*
X118096Y202962D01*
X114538Y199404D01*
X102672Y211270D01*
X106230Y214828D01*
G37*
G36*
X102695Y211292D02*
X114561Y199426D01*
X111003Y195868D01*
X99137Y207734D01*
X102695Y211292D01*
G37*
G36*
X99159Y207757D02*
X111025Y195891D01*
X107467Y192333D01*
X95601Y204199D01*
X99159Y207757D01*
G37*
G36*
X95623Y204221D02*
X107489Y192355D01*
X103931Y188797D01*
X92065Y200663D01*
X95623Y204221D01*
G37*
G36*
X92088Y200686D02*
X103954Y188820D01*
X100396Y185262D01*
X88530Y197128D01*
X92088Y200686D01*
G37*
G36*
X88552Y197150D02*
X100418Y185284D01*
X96860Y181726D01*
X84994Y193592D01*
X88552Y197150D01*
G37*
G36*
X85017Y193615D02*
X96883Y181749D01*
X93325Y178191D01*
X81459Y190057D01*
X85017Y193615D01*
G37*
G36*
X81481Y190079D02*
X93347Y178213D01*
X89789Y174655D01*
X77923Y186521D01*
X81481Y190079D01*
G37*
G36*
X77946Y186544D02*
X89812Y174678D01*
X86254Y171120D01*
X74388Y182986D01*
X77946Y186544D01*
G37*
G36*
X74410Y183008D02*
X86276Y171142D01*
X82718Y167584D01*
X70852Y179450D01*
X74410Y183008D01*
G37*
G36*
X70875Y179473D02*
X82741Y167607D01*
X79183Y164049D01*
X67317Y175915D01*
X70875Y179473D01*
G37*
G36*
X67339Y175937D02*
X79205Y164071D01*
X75647Y160513D01*
X63781Y172379D01*
X67339Y175937D01*
G37*
G36*
X63804Y172402D02*
X75670Y160536D01*
X72112Y156978D01*
X60246Y168844D01*
X63804Y172402D01*
G37*
G36*
X414536Y148060D02*
X426402Y136194D01*
X422844Y132636D01*
X410978Y144502D01*
X414536Y148060D01*
G37*
G36*
X418071Y151595D02*
X429937Y139729D01*
X426379Y136171D01*
X414513Y148037D01*
X418071Y151595D01*
G37*
G36*
X421607Y155131D02*
X433473Y143265D01*
X429915Y139707D01*
X418049Y151573D01*
X421607Y155131D01*
G37*
G36*
X425142Y158666D02*
X437008Y146800D01*
X433450Y143242D01*
X421584Y155108D01*
X425142Y158666D01*
G37*
G36*
X428678Y162202D02*
X440544Y150336D01*
X436986Y146778D01*
X425120Y158644D01*
X428678Y162202D01*
G37*
G36*
X432213Y165737D02*
X444079Y153871D01*
X440521Y150313D01*
X428655Y162179D01*
X432213Y165737D01*
G37*
G36*
X435749Y169273D02*
X447615Y157407D01*
X444057Y153849D01*
X432191Y165715D01*
X435749Y169273D01*
G37*
G36*
X439284Y172808D02*
X451150Y160942D01*
X447592Y157384D01*
X435726Y169250D01*
X439284Y172808D01*
G37*
G36*
X442820Y176344D02*
X454686Y164478D01*
X451128Y160920D01*
X439262Y172786D01*
X442820Y176344D01*
G37*
G36*
X446355Y179879D02*
X458221Y168013D01*
X454663Y164455D01*
X442797Y176321D01*
X446355Y179879D01*
G37*
G36*
X449891Y183415D02*
X461757Y171549D01*
X458199Y167991D01*
X446333Y179857D01*
X449891Y183415D01*
G37*
G36*
X453426Y186951D02*
X465292Y175085D01*
X461734Y171527D01*
X449868Y183393D01*
X453426Y186951D01*
G37*
G36*
X456962Y190486D02*
X468828Y178620D01*
X465270Y175062D01*
X453404Y186928D01*
X456962Y190486D01*
G37*
G36*
X460497Y194022D02*
X472363Y182156D01*
X468805Y178598D01*
X456939Y190464D01*
X460497Y194022D01*
G37*
G36*
X464033Y197557D02*
X475899Y185691D01*
X472341Y182133D01*
X460475Y193999D01*
X464033Y197557D01*
G37*
G36*
X467569Y201093D02*
X479435Y189227D01*
X475877Y185669D01*
X464011Y197535D01*
X467569Y201093D01*
G37*
G36*
X471104Y204628D02*
X482970Y192762D01*
X479412Y189204D01*
X467546Y201070D01*
X471104Y204628D01*
G37*
G36*
X474640Y208164D02*
X486506Y196298D01*
X482948Y192740D01*
X471082Y204606D01*
X474640Y208164D01*
G37*
G36*
X478175Y211699D02*
X490041Y199833D01*
X486483Y196275D01*
X474617Y208141D01*
X478175Y211699D01*
G37*
G36*
X481711Y215235D02*
X493577Y203369D01*
X490019Y199811D01*
X478153Y211677D01*
X481711Y215235D01*
G37*
G36*
X485246Y218770D02*
X497112Y206904D01*
X493554Y203346D01*
X481688Y215212D01*
X485246Y218770D01*
G37*
G36*
X488782Y222306D02*
X500648Y210440D01*
X497090Y206882D01*
X485224Y218748D01*
X488782Y222306D01*
G37*
G36*
X492317Y225841D02*
X504183Y213975D01*
X500625Y210417D01*
X488759Y222283D01*
X492317Y225841D01*
G37*
G36*
X495853Y229377D02*
X507719Y217511D01*
X504161Y213953D01*
X492295Y225819D01*
X495853Y229377D01*
G37*
G36*
X499388Y232912D02*
X511254Y221046D01*
X507696Y217488D01*
X495830Y229354D01*
X499388Y232912D01*
G37*
G36*
X495830Y245626D02*
X507696Y257492D01*
X511254Y253934D01*
X499388Y242068D01*
X495830Y245626D01*
G37*
G36*
X492295Y249161D02*
X504161Y261027D01*
X507719Y257469D01*
X495853Y245603D01*
X492295Y249161D01*
G37*
G36*
X488759Y252697D02*
X500625Y264563D01*
X504183Y261005D01*
X492317Y249139D01*
X488759Y252697D01*
G37*
G36*
X485224Y256232D02*
X497090Y268098D01*
X500648Y264540D01*
X488782Y252674D01*
X485224Y256232D01*
G37*
G36*
X481688Y259768D02*
X493554Y271634D01*
X497112Y268076D01*
X485246Y256210D01*
X481688Y259768D01*
G37*
G36*
X478153Y263303D02*
X490019Y275169D01*
X493577Y271611D01*
X481711Y259745D01*
X478153Y263303D01*
G37*
G36*
X474617Y266839D02*
X486483Y278705D01*
X490041Y275147D01*
X478175Y263281D01*
X474617Y266839D01*
G37*
G36*
X471082Y270374D02*
X482948Y282240D01*
X486506Y278682D01*
X474640Y266816D01*
X471082Y270374D01*
G37*
G36*
X467546Y273910D02*
X479412Y285776D01*
X482970Y282218D01*
X471104Y270352D01*
X467546Y273910D01*
G37*
G36*
X464011Y277445D02*
X475877Y289311D01*
X479435Y285753D01*
X467569Y273887D01*
X464011Y277445D01*
G37*
G36*
X460475Y280981D02*
X472341Y292847D01*
X475899Y289289D01*
X464033Y277423D01*
X460475Y280981D01*
G37*
G36*
X456939Y284516D02*
X468805Y296382D01*
X472363Y292824D01*
X460497Y280958D01*
X456939Y284516D01*
G37*
G36*
X453404Y288052D02*
X465270Y299918D01*
X468828Y296360D01*
X456962Y284494D01*
X453404Y288052D01*
G37*
G36*
X449868Y291587D02*
X461734Y303453D01*
X465292Y299895D01*
X453426Y288029D01*
X449868Y291587D01*
G37*
G36*
X446333Y295123D02*
X458199Y306989D01*
X461757Y303431D01*
X449891Y291565D01*
X446333Y295123D01*
G37*
G36*
X442797Y298659D02*
X454663Y310525D01*
X458221Y306967D01*
X446355Y295101D01*
X442797Y298659D01*
G37*
G36*
X439262Y302194D02*
X451128Y314060D01*
X454686Y310502D01*
X442820Y298636D01*
X439262Y302194D01*
G37*
G36*
X435726Y305730D02*
X447592Y317596D01*
X451150Y314038D01*
X439284Y302172D01*
X435726Y305730D01*
G37*
G36*
X432191Y309265D02*
X444057Y321131D01*
X447615Y317573D01*
X435749Y305707D01*
X432191Y309265D01*
G37*
G36*
X428655Y312801D02*
X440521Y324667D01*
X444079Y321109D01*
X432213Y309243D01*
X428655Y312801D01*
G37*
G36*
X425120Y316336D02*
X436986Y328202D01*
X440544Y324644D01*
X428678Y312778D01*
X425120Y316336D01*
G37*
G36*
X421584Y319872D02*
X433450Y331738D01*
X437008Y328180D01*
X425142Y316314D01*
X421584Y319872D01*
G37*
G36*
X418049Y323407D02*
X429915Y335273D01*
X433473Y331715D01*
X421607Y319849D01*
X418049Y323407D01*
G37*
G36*
X414513Y326943D02*
X426379Y338809D01*
X429937Y335251D01*
X418071Y323385D01*
X414513Y326943D01*
G37*
G36*
X410978Y330478D02*
X422844Y342344D01*
X426402Y338786D01*
X414536Y326920D01*
X410978Y330478D01*
G37*
G36*
X389956Y342344D02*
X401822Y330478D01*
X398264Y326920D01*
X386398Y338786D01*
X389956Y342344D01*
G37*
G36*
X386421Y338809D02*
X398287Y326943D01*
X394729Y323385D01*
X382863Y335251D01*
X386421Y338809D01*
G37*
G36*
X382885Y335273D02*
X394751Y323407D01*
X391193Y319849D01*
X379327Y331715D01*
X382885Y335273D01*
G37*
G36*
X379350Y331738D02*
X391216Y319872D01*
X387658Y316314D01*
X375792Y328180D01*
X379350Y331738D01*
G37*
G36*
X375814Y328202D02*
X387680Y316336D01*
X384122Y312778D01*
X372256Y324644D01*
X375814Y328202D01*
G37*
G36*
X372279Y324667D02*
X384145Y312801D01*
X380587Y309243D01*
X368721Y321109D01*
X372279Y324667D01*
G37*
G36*
X368743Y321131D02*
X380609Y309265D01*
X377051Y305707D01*
X365185Y317573D01*
X368743Y321131D01*
G37*
G36*
X365208Y317596D02*
X377074Y305730D01*
X373516Y302172D01*
X361650Y314038D01*
X365208Y317596D01*
G37*
G36*
X361672Y314060D02*
X373538Y302194D01*
X369980Y298636D01*
X358114Y310502D01*
X361672Y314060D01*
G37*
G36*
X358137Y310525D02*
X370003Y298659D01*
X366445Y295101D01*
X354579Y306967D01*
X358137Y310525D01*
G37*
G36*
X354601Y306989D02*
X366467Y295123D01*
X362909Y291565D01*
X351043Y303431D01*
X354601Y306989D01*
G37*
G36*
X351066Y303453D02*
X362932Y291587D01*
X359374Y288029D01*
X347508Y299895D01*
X351066Y303453D01*
G37*
G36*
X347530Y299918D02*
X359396Y288052D01*
X355838Y284494D01*
X343972Y296360D01*
X347530Y299918D01*
G37*
G36*
X343995Y296382D02*
X355861Y284516D01*
X352303Y280958D01*
X340437Y292824D01*
X343995Y296382D01*
G37*
G36*
X340459Y292847D02*
X352325Y280981D01*
X348767Y277423D01*
X336901Y289289D01*
X340459Y292847D01*
G37*
G36*
X336923Y289311D02*
X348789Y277445D01*
X345231Y273887D01*
X333365Y285753D01*
X336923Y289311D01*
G37*
G36*
X333388Y285776D02*
X345254Y273910D01*
X341696Y270352D01*
X329830Y282218D01*
X333388Y285776D01*
G37*
G36*
X329852Y282240D02*
X341718Y270374D01*
X338160Y266816D01*
X326294Y278682D01*
X329852Y282240D01*
G37*
G36*
X326317Y278705D02*
X338183Y266839D01*
X334625Y263281D01*
X322759Y275147D01*
X326317Y278705D01*
G37*
G36*
X322781Y275169D02*
X334647Y263303D01*
X331089Y259745D01*
X319223Y271611D01*
X322781Y275169D01*
G37*
G36*
X319246Y271634D02*
X331112Y259768D01*
X327554Y256210D01*
X315688Y268076D01*
X319246Y271634D01*
G37*
G36*
X315710Y268098D02*
X327576Y256232D01*
X324018Y252674D01*
X312152Y264540D01*
X315710Y268098D01*
G37*
G36*
X312175Y264563D02*
X324041Y252697D01*
X320483Y249139D01*
X308617Y261005D01*
X312175Y264563D01*
G37*
G36*
X308639Y261027D02*
X320505Y249161D01*
X316947Y245603D01*
X305081Y257469D01*
X308639Y261027D01*
G37*
G36*
X305104Y257492D02*
X316970Y245626D01*
X313412Y242068D01*
X301546Y253934D01*
X305104Y257492D01*
G37*
G36*
X301546Y221046D02*
X313412Y232912D01*
X316970Y229354D01*
X305104Y217488D01*
X301546Y221046D01*
G37*
G36*
X305081Y217511D02*
X316947Y229377D01*
X320505Y225819D01*
X308639Y213953D01*
X305081Y217511D01*
G37*
G36*
X308617Y213975D02*
X320483Y225841D01*
X324041Y222283D01*
X312175Y210417D01*
X308617Y213975D01*
G37*
G36*
X312152Y210440D02*
X324018Y222306D01*
X327576Y218748D01*
X315710Y206882D01*
X312152Y210440D01*
G37*
G36*
X315688Y206904D02*
X327554Y218770D01*
X331112Y215212D01*
X319246Y203346D01*
X315688Y206904D01*
G37*
G36*
X319223Y203369D02*
X331089Y215235D01*
X334647Y211677D01*
X322781Y199811D01*
X319223Y203369D01*
G37*
G36*
X322759Y199833D02*
X334625Y211699D01*
X338183Y208141D01*
X326317Y196275D01*
X322759Y199833D01*
G37*
G36*
X326294Y196298D02*
X338160Y208164D01*
X341718Y204606D01*
X329852Y192740D01*
X326294Y196298D01*
G37*
G36*
X329830Y192762D02*
X341696Y204628D01*
X345254Y201070D01*
X333388Y189204D01*
X329830Y192762D01*
G37*
G36*
X333365Y189227D02*
X345231Y201093D01*
X348789Y197535D01*
X336923Y185669D01*
X333365Y189227D01*
G37*
G36*
X336901Y185691D02*
X348767Y197557D01*
X352325Y193999D01*
X340459Y182133D01*
X336901Y185691D01*
G37*
G36*
X340437Y182156D02*
X352303Y194022D01*
X355861Y190464D01*
X343995Y178598D01*
X340437Y182156D01*
G37*
G36*
X343972Y178620D02*
X355838Y190486D01*
X359396Y186928D01*
X347530Y175062D01*
X343972Y178620D01*
G37*
G36*
X347508Y175085D02*
X359374Y186951D01*
X362932Y183393D01*
X351066Y171527D01*
X347508Y175085D01*
G37*
G36*
X351043Y171549D02*
X362909Y183415D01*
X366467Y179857D01*
X354601Y167991D01*
X351043Y171549D01*
G37*
G36*
X354579Y168013D02*
X366445Y179879D01*
X370003Y176321D01*
X358137Y164455D01*
X354579Y168013D01*
G37*
G36*
X358114Y164478D02*
X369980Y176344D01*
X373538Y172786D01*
X361672Y160920D01*
X358114Y164478D01*
G37*
G36*
X361650Y160942D02*
X373516Y172808D01*
X377074Y169250D01*
X365208Y157384D01*
X361650Y160942D01*
G37*
G36*
X365185Y157407D02*
X377051Y169273D01*
X380609Y165715D01*
X368743Y153849D01*
X365185Y157407D01*
G37*
G36*
X368721Y153871D02*
X380587Y165737D01*
X384145Y162179D01*
X372279Y150313D01*
X368721Y153871D01*
G37*
G36*
X372256Y150336D02*
X384122Y162202D01*
X387680Y158644D01*
X375814Y146778D01*
X372256Y150336D01*
G37*
G36*
X375792Y146800D02*
X387658Y158666D01*
X391216Y155108D01*
X379350Y143242D01*
X375792Y146800D01*
G37*
G36*
X379327Y143265D02*
X391193Y155131D01*
X394751Y151573D01*
X382885Y139707D01*
X379327Y143265D01*
G37*
G36*
X382863Y139729D02*
X394729Y151595D01*
X398287Y148037D01*
X386421Y136171D01*
X382863Y139729D01*
G37*
G36*
X386398Y136194D02*
X398264Y148060D01*
X401822Y144502D01*
X389956Y132636D01*
X386398Y136194D01*
G37*
D16*
X275463Y443900D03*
X275463Y438900D03*
X275463Y433900D03*
X275463Y428900D03*
X275463Y423900D03*
X275463Y418900D03*
X275463Y413900D03*
X275463Y408900D03*
X275463Y403900D03*
X275463Y398900D03*
X275463Y393900D03*
X275463Y388900D03*
X275463Y383900D03*
X275463Y378900D03*
X275463Y373900D03*
X275463Y368900D03*
X410337Y368900D03*
X410337Y373900D03*
X410337Y378900D03*
X410337Y383900D03*
X410337Y388900D03*
X410337Y393900D03*
X410337Y398900D03*
X410337Y403900D03*
X410337Y408900D03*
X410337Y413900D03*
X410337Y418900D03*
X410337Y423900D03*
X410337Y428900D03*
X410337Y433900D03*
X410337Y438900D03*
X410337Y443900D03*
D17*
X528920Y259461D03*
X533920Y259461D03*
X538920Y259461D03*
X543920Y259461D03*
X548920Y259461D03*
X553920Y259461D03*
X558920Y259461D03*
X563920Y259461D03*
X568920Y259461D03*
X573920Y259461D03*
X578920Y259461D03*
X583920Y259461D03*
X588920Y259461D03*
X593920Y259461D03*
X598920Y259461D03*
X603920Y259461D03*
X603920Y388239D03*
X598920Y388239D03*
X593920Y388239D03*
X588920Y388239D03*
X583920Y388239D03*
X578920Y388239D03*
X573920Y388239D03*
X568920Y388239D03*
X563920Y388239D03*
X558920Y388239D03*
X553920Y388239D03*
X548920Y388239D03*
X543920Y388239D03*
X538920Y388239D03*
X533920Y388239D03*
X528920Y388239D03*
D18*
X33900Y444500D03*
X16900Y444500D03*
X55000Y292100D03*
X72000Y292100D03*
X42300Y241300D03*
X59300Y241300D03*
G36*
X468053Y351479D02*
X458839Y360693D01*
X467347Y369201D01*
X476561Y359987D01*
X468053Y351479D01*
G37*
G36*
X480073Y339459D02*
X470859Y348673D01*
X479367Y357181D01*
X488581Y347967D01*
X480073Y339459D01*
G37*
D19*
X367030Y338210D03*
X367030Y355210D03*
D20*
X151000Y508000D03*
X659000Y355600D03*
X659000Y76200D03*
X138300Y25400D03*
D21*
X278000Y25400D03*
X303400Y25400D03*
X328800Y25400D03*
X354200Y25400D03*
X379600Y25400D03*
X405000Y25400D03*
X430400Y25400D03*
X455800Y25400D03*
X506600Y25400D03*
X532000Y25400D03*
X557400Y25400D03*
X582800Y25400D03*
X608200Y25400D03*
X633600Y25400D03*
X633600Y508000D03*
X608200Y508000D03*
X582800Y508000D03*
X557400Y508000D03*
X532000Y508000D03*
X506600Y508000D03*
X481200Y508000D03*
X455800Y508000D03*
X415160Y508000D03*
X389760Y508000D03*
X364360Y508000D03*
X338960Y508000D03*
X313560Y508000D03*
X288160Y508000D03*
X262760Y508000D03*
X237360Y508000D03*
X211960Y508000D03*
X186560Y508000D03*
X660400Y253500D03*
X660400Y304300D03*
X660400Y202700D03*
X660400Y278900D03*
X660400Y228100D03*
X660400Y177300D03*
D22*
X22480Y467720D03*
X101980Y467720D03*
X22480Y512720D03*
X101980Y512720D03*
D23*
X25400Y25400D03*
X25400Y50800D03*
X25400Y76200D03*
D19*
X20710Y120260D03*
X20710Y103260D03*
X57540Y20710D03*
X57540Y37710D03*
D24*
X33630Y288591D03*
X24130Y288591D03*
X14630Y288591D03*
X14630Y262589D03*
X33630Y262589D03*
D25*
X26600Y317500D03*
X49600Y317500D03*
X229800Y25400D03*
X252800Y25400D03*
D18*
G36*
X291153Y278187D02*
X300367Y268973D01*
X291859Y260465D01*
X282645Y269679D01*
X291153Y278187D01*
G37*
G36*
X279133Y290207D02*
X288347Y280993D01*
X279839Y272485D01*
X270625Y281699D01*
X279133Y290207D01*
G37*
G36*
X409019Y354907D02*
X418233Y364121D01*
X426741Y355613D01*
X417527Y346399D01*
X409019Y354907D01*
G37*
G36*
X396999Y342887D02*
X406213Y352101D01*
X414721Y343593D01*
X405507Y334379D01*
X396999Y342887D01*
G37*
X55390Y267970D03*
X72390Y267970D03*
X118890Y425450D03*
X135890Y425450D03*
G36*
X198821Y433763D02*
X189607Y424549D01*
X181099Y433057D01*
X190313Y442271D01*
X198821Y433763D01*
G37*
G36*
X210841Y445783D02*
X201627Y436569D01*
X193119Y445077D01*
X202333Y454291D01*
X210841Y445783D01*
G37*
G36*
X291913Y134309D02*
X282699Y143523D01*
X291207Y152031D01*
X300421Y142817D01*
X291913Y134309D01*
G37*
G36*
X303933Y122289D02*
X294719Y131503D01*
X303227Y140011D01*
X312441Y130797D01*
X303933Y122289D01*
G37*
G36*
X169611Y275013D02*
X160397Y265799D01*
X151889Y274307D01*
X161103Y283521D01*
X169611Y275013D01*
G37*
G36*
X181631Y287033D02*
X172417Y277819D01*
X163909Y286327D01*
X173123Y295541D01*
X181631Y287033D01*
G37*
G36*
X106377Y49841D02*
X115591Y40627D01*
X107083Y32119D01*
X97869Y41333D01*
X106377Y49841D01*
G37*
G36*
X94357Y61861D02*
X103571Y52647D01*
X95063Y44139D01*
X85849Y53353D01*
X94357Y61861D01*
G37*
D19*
X660400Y148200D03*
X660400Y131200D03*
D18*
X46990Y178308D03*
X29990Y178308D03*
G36*
X193119Y41217D02*
X202333Y50431D01*
X210841Y41923D01*
X201627Y32709D01*
X193119Y41217D01*
G37*
G36*
X181099Y29197D02*
X190313Y38411D01*
X198821Y29903D01*
X189607Y20689D01*
X181099Y29197D01*
G37*
G36*
X279213Y121609D02*
X269999Y130823D01*
X278507Y139331D01*
X287721Y130117D01*
X279213Y121609D01*
G37*
G36*
X291233Y109589D02*
X282019Y118803D01*
X290527Y127311D01*
X299741Y118097D01*
X291233Y109589D01*
G37*
G36*
X182311Y262313D02*
X173097Y253099D01*
X164589Y261607D01*
X173803Y270821D01*
X182311Y262313D01*
G37*
G36*
X194331Y274333D02*
X185117Y265119D01*
X176609Y273627D01*
X185823Y282841D01*
X194331Y274333D01*
G37*
G36*
X119077Y62541D02*
X128291Y53327D01*
X119783Y44819D01*
X110569Y54033D01*
X119077Y62541D01*
G37*
G36*
X107057Y74561D02*
X116271Y65347D01*
X107763Y56839D01*
X98549Y66053D01*
X107057Y74561D01*
G37*
G36*
X452813Y336239D02*
X443599Y345453D01*
X452107Y353961D01*
X461321Y344747D01*
X452813Y336239D01*
G37*
G36*
X464833Y324219D02*
X455619Y333433D01*
X464127Y341941D01*
X473341Y332727D01*
X464833Y324219D01*
G37*
G36*
X300297Y241357D02*
X309511Y232143D01*
X301003Y223635D01*
X291789Y232849D01*
X300297Y241357D01*
G37*
G36*
X288277Y253377D02*
X297491Y244163D01*
X288983Y235655D01*
X279769Y244869D01*
X288277Y253377D01*
G37*
G36*
X348939Y150437D02*
X358153Y159651D01*
X366661Y151143D01*
X357447Y141929D01*
X348939Y150437D01*
G37*
G36*
X336919Y138417D02*
X346133Y147631D01*
X354641Y139123D01*
X345427Y129909D01*
X336919Y138417D01*
G37*
G36*
X398583Y108897D02*
X389369Y99683D01*
X380861Y108191D01*
X390075Y117405D01*
X398583Y108897D01*
G37*
G36*
X410603Y120917D02*
X401389Y111703D01*
X392881Y120211D01*
X402095Y129425D01*
X410603Y120917D01*
G37*
X455050Y139700D03*
X472050Y139700D03*
X511438Y206502D03*
X528438Y206502D03*
G36*
X513773Y232099D02*
X504559Y241313D01*
X513067Y249821D01*
X522281Y240607D01*
X513773Y232099D01*
G37*
G36*
X525793Y220079D02*
X516579Y229293D01*
X525087Y237801D01*
X534301Y228587D01*
X525793Y220079D01*
G37*
D19*
X563000Y240910D03*
X563000Y223910D03*
D18*
X256540Y406400D03*
X239540Y406400D03*
X115062Y315976D03*
X98062Y315976D03*
D19*
X223910Y345050D03*
X223910Y328050D03*
D26*
X625148Y397576D02*
X625148Y404556D01*
X625148Y397576D02*
X618168Y397576D01*
X618168Y404556D01*
X625148Y404556D01*
X625148Y402376D02*
X618168Y402376D01*
X642688Y404556D02*
X642688Y397576D01*
X635708Y397576D01*
X635708Y404556D01*
X642688Y404556D01*
X642688Y402376D02*
X635708Y402376D01*
D19*
X646176Y436508D03*
X646176Y453508D03*
X15240Y243450D03*
X15240Y226450D03*
X116840Y481720D03*
X116840Y498720D03*
D23*
X509270Y132842D03*
M02*
