M48
;GenerationSoftware,Autodesk,EAGLE,9.6.0*%
;CreationDate,2020-10-16T04:40:43Z*%
FMAT,2
ICI,OFF
METRIC,TZ,000.000
T6C0.305
T5C0.381
T4C0.508
T3C0.850
T2C1.016
T1C3.175
%
G90
M71
T1
X15100Y50800
X65900Y7620
X13830Y2540
X65900Y35560
T2
X18656Y50800
X2540Y2540
X66040Y17730
X55740Y2540
X53200Y2540
X50660Y2540
X45580Y2540
X43040Y2540
X40500Y2540
X37960Y2540
X35420Y2540
X32880Y2540
X30340Y2540
X27800Y2540
X21196Y50800
X23736Y50800
X66040Y22810
X26276Y50800
X66040Y27890
X66040Y20270
X60820Y2540
X66040Y30430
X66040Y25350
X38976Y50800
X28816Y50800
X50927Y13284
X31356Y50800
X33896Y50800
X36436Y50800
X41516Y50800
X45580Y50800
X48120Y50800
X50660Y50800
X53200Y50800
X55740Y50800
X58280Y50800
X60820Y50800
X63360Y50800
X63360Y2540
X58280Y2540
X2540Y7620
X2540Y5080
T3
X4232Y36200
X4232Y40000
T4
X39471Y31343
X41910Y31369
X5588Y42545
X5842Y32766
X5842Y40259
X3454Y33401
T5
X56290Y21180
X39831Y13314
X40284Y16472
X34646Y12446
X32401Y9897
X43053Y48641
X25857Y28647
X52300Y19345
X51367Y22492
X16408Y38329
X21234Y45568
X18974Y28829
X17958Y20447
X16561Y18517
X22200Y31572
X27381Y36170
X24968Y44044
X40945Y7798
X31166Y14834
X27178Y14554
X7391Y25044
X16815Y13487
X15240Y9423
X9169Y9068
X11481Y7366
X36855Y36754
X48895Y35763
X36347Y41732
X13970Y46990
X32131Y8636
X47752Y7366
X26975Y21895
X29591Y40259
X64618Y48590
X21793Y3708
X24155Y1372
X37973Y9830
X26238Y1905
X52121Y25171
X12954Y39065
X17374Y39065
X16891Y1956
X6350Y44450
X8687Y3607
X35371Y10479
X36240Y11443
X42443Y10389
X48260Y22631
X4293Y25197
X11608Y35331
X9500Y38608
X1778Y13970
X10566Y2299
X20625Y1626
X48260Y12700
X55423Y27559
X21895Y30099
X22402Y42368
X19741Y28073
T6
X45009Y15054
X27563Y29418
X45796Y36906
X36500Y4115
X43332Y35966
X24206Y15215
X44044Y36424
X26873Y15773
X27065Y20831
X20223Y12294
X23377Y24213
X27635Y20209
X20244Y13183
X22530Y24213
X28232Y19570
X21201Y13163
X21679Y24206
X33630Y21742
X15215Y18288
X34517Y21741
X14556Y17628
X34745Y23188
X13894Y16967
X35392Y22615
X13233Y16307
X12573Y15646
X36013Y23237
X35928Y13197
X17945Y11066
X36919Y13297
X17945Y10200
X36957Y12357
X17069Y10200
X37986Y12294
X17069Y9331
X45125Y10274
X16189Y9331
X46802Y10300
X15302Y8469
X47640Y10274
X15302Y7595
X14910Y28067
X14199Y28677
X13499Y28067
X12827Y28677
X12217Y28067
X11582Y28677
X10965Y28067
X10356Y28677
X34167Y26072
X19355Y12294
X28113Y22585
X18237Y14199
X24232Y24206
X12852Y10566
X42139Y16993
X13517Y11087
X41300Y17602
X34036Y4115
X20848Y15576
X15778Y12687
X14478Y34544
X35090Y25728
X32477Y23790
X23102Y17830
X27170Y23215
X27769Y23832
X22936Y22367
X45964Y10274
X16189Y8469
X31155Y44132
X14749Y26128
X28778Y41242
X13407Y25683
X19347Y11417
X33105Y23157
X23695Y17237
X41173Y24867
X26797Y9881
X39649Y27254
X25853Y9931
X41123Y29210
X29146Y9081
X40234Y29210
X28308Y9104
X39345Y29210
X25794Y9093
X35674Y25123
X21476Y14034
X28067Y31979
X11252Y13539
X27229Y32029
X10641Y14174
X22301Y15316
X27102Y32868
X10008Y14808
X9423Y15442
X39116Y36043
X8853Y16090
X38900Y36854
X38707Y37671
X7562Y23063
X37668Y37668
X7562Y22149
X35890Y36805
X7562Y20320
X36538Y38557
X7562Y21234
X38451Y29235
X26619Y10947
X25857Y33680
X28309Y30298
X46761Y37592
X42570Y38633
X43849Y27779
X24943Y9093
X43231Y28880
X29616Y15291
X42546Y30607
X28759Y15418
X27915Y15545
X44780Y36855
X15086Y13538
M30