G04 EAGLE Gerber RS-274X export*
G75*
%MOMM*%
%FSLAX34Y34*%
%LPD*%
%INOutline*%
%IPPOS*%
%AMOC8*
5,1,8,0,0,1.08239X$1,22.5*%
G01*
%ADD10C,0.152400*%
%ADD11C,0.000000*%


D10*
X0Y0D02*
X0Y533400D01*
X645160Y533400D01*
X660400Y518160D01*
X660400Y403860D01*
X685800Y378460D01*
X685800Y50800D01*
X660400Y25400D01*
X660400Y0D01*
X0Y0D01*
D11*
X38070Y400000D02*
X38072Y400130D01*
X38078Y400260D01*
X38088Y400390D01*
X38102Y400520D01*
X38120Y400649D01*
X38142Y400777D01*
X38167Y400905D01*
X38197Y401032D01*
X38231Y401158D01*
X38268Y401282D01*
X38309Y401406D01*
X38354Y401528D01*
X38403Y401649D01*
X38455Y401768D01*
X38511Y401886D01*
X38571Y402002D01*
X38634Y402116D01*
X38701Y402228D01*
X38771Y402337D01*
X38844Y402445D01*
X38920Y402550D01*
X39000Y402653D01*
X39083Y402754D01*
X39169Y402852D01*
X39258Y402947D01*
X39350Y403040D01*
X39444Y403129D01*
X39541Y403216D01*
X39641Y403299D01*
X39744Y403380D01*
X39848Y403457D01*
X39955Y403531D01*
X40065Y403602D01*
X40176Y403670D01*
X40290Y403734D01*
X40405Y403794D01*
X40522Y403851D01*
X40641Y403904D01*
X40762Y403954D01*
X40883Y404000D01*
X41007Y404042D01*
X41131Y404080D01*
X41257Y404115D01*
X41383Y404146D01*
X41511Y404172D01*
X41639Y404195D01*
X41768Y404214D01*
X41897Y404229D01*
X42027Y404240D01*
X42157Y404247D01*
X42287Y404250D01*
X42418Y404249D01*
X42548Y404244D01*
X42678Y404235D01*
X42807Y404222D01*
X42937Y404205D01*
X43065Y404184D01*
X43193Y404159D01*
X43320Y404131D01*
X43446Y404098D01*
X43571Y404062D01*
X43695Y404021D01*
X43818Y403977D01*
X43939Y403930D01*
X44059Y403878D01*
X44177Y403823D01*
X44293Y403764D01*
X44407Y403702D01*
X44520Y403636D01*
X44630Y403567D01*
X44738Y403495D01*
X44844Y403419D01*
X44948Y403340D01*
X45049Y403258D01*
X45148Y403173D01*
X45244Y403085D01*
X45337Y402994D01*
X45427Y402900D01*
X45514Y402803D01*
X45599Y402704D01*
X45680Y402602D01*
X45758Y402498D01*
X45833Y402392D01*
X45905Y402283D01*
X45973Y402172D01*
X46038Y402059D01*
X46099Y401944D01*
X46157Y401827D01*
X46211Y401709D01*
X46262Y401589D01*
X46309Y401467D01*
X46352Y401344D01*
X46391Y401220D01*
X46427Y401095D01*
X46458Y400968D01*
X46486Y400841D01*
X46510Y400713D01*
X46530Y400584D01*
X46546Y400455D01*
X46558Y400325D01*
X46566Y400195D01*
X46570Y400065D01*
X46570Y399935D01*
X46566Y399805D01*
X46558Y399675D01*
X46546Y399545D01*
X46530Y399416D01*
X46510Y399287D01*
X46486Y399159D01*
X46458Y399032D01*
X46427Y398905D01*
X46391Y398780D01*
X46352Y398656D01*
X46309Y398533D01*
X46262Y398411D01*
X46211Y398291D01*
X46157Y398173D01*
X46099Y398056D01*
X46038Y397941D01*
X45973Y397828D01*
X45905Y397717D01*
X45833Y397608D01*
X45758Y397502D01*
X45680Y397398D01*
X45599Y397296D01*
X45514Y397197D01*
X45427Y397100D01*
X45337Y397006D01*
X45244Y396915D01*
X45148Y396827D01*
X45049Y396742D01*
X44948Y396660D01*
X44844Y396581D01*
X44738Y396505D01*
X44630Y396433D01*
X44520Y396364D01*
X44407Y396298D01*
X44293Y396236D01*
X44177Y396177D01*
X44059Y396122D01*
X43939Y396070D01*
X43818Y396023D01*
X43695Y395979D01*
X43571Y395938D01*
X43446Y395902D01*
X43320Y395869D01*
X43193Y395841D01*
X43065Y395816D01*
X42937Y395795D01*
X42807Y395778D01*
X42678Y395765D01*
X42548Y395756D01*
X42418Y395751D01*
X42287Y395750D01*
X42157Y395753D01*
X42027Y395760D01*
X41897Y395771D01*
X41768Y395786D01*
X41639Y395805D01*
X41511Y395828D01*
X41383Y395854D01*
X41257Y395885D01*
X41131Y395920D01*
X41007Y395958D01*
X40883Y396000D01*
X40762Y396046D01*
X40641Y396096D01*
X40522Y396149D01*
X40405Y396206D01*
X40290Y396266D01*
X40176Y396330D01*
X40065Y396398D01*
X39955Y396469D01*
X39848Y396543D01*
X39744Y396620D01*
X39641Y396701D01*
X39541Y396784D01*
X39444Y396871D01*
X39350Y396960D01*
X39258Y397053D01*
X39169Y397148D01*
X39083Y397246D01*
X39000Y397347D01*
X38920Y397450D01*
X38844Y397555D01*
X38771Y397663D01*
X38701Y397772D01*
X38634Y397884D01*
X38571Y397998D01*
X38511Y398114D01*
X38455Y398232D01*
X38403Y398351D01*
X38354Y398472D01*
X38309Y398594D01*
X38268Y398718D01*
X38231Y398842D01*
X38197Y398968D01*
X38167Y399095D01*
X38142Y399223D01*
X38120Y399351D01*
X38102Y399480D01*
X38088Y399610D01*
X38078Y399740D01*
X38072Y399870D01*
X38070Y400000D01*
X38070Y362000D02*
X38072Y362130D01*
X38078Y362260D01*
X38088Y362390D01*
X38102Y362520D01*
X38120Y362649D01*
X38142Y362777D01*
X38167Y362905D01*
X38197Y363032D01*
X38231Y363158D01*
X38268Y363282D01*
X38309Y363406D01*
X38354Y363528D01*
X38403Y363649D01*
X38455Y363768D01*
X38511Y363886D01*
X38571Y364002D01*
X38634Y364116D01*
X38701Y364228D01*
X38771Y364337D01*
X38844Y364445D01*
X38920Y364550D01*
X39000Y364653D01*
X39083Y364754D01*
X39169Y364852D01*
X39258Y364947D01*
X39350Y365040D01*
X39444Y365129D01*
X39541Y365216D01*
X39641Y365299D01*
X39744Y365380D01*
X39848Y365457D01*
X39955Y365531D01*
X40065Y365602D01*
X40176Y365670D01*
X40290Y365734D01*
X40405Y365794D01*
X40522Y365851D01*
X40641Y365904D01*
X40762Y365954D01*
X40883Y366000D01*
X41007Y366042D01*
X41131Y366080D01*
X41257Y366115D01*
X41383Y366146D01*
X41511Y366172D01*
X41639Y366195D01*
X41768Y366214D01*
X41897Y366229D01*
X42027Y366240D01*
X42157Y366247D01*
X42287Y366250D01*
X42418Y366249D01*
X42548Y366244D01*
X42678Y366235D01*
X42807Y366222D01*
X42937Y366205D01*
X43065Y366184D01*
X43193Y366159D01*
X43320Y366131D01*
X43446Y366098D01*
X43571Y366062D01*
X43695Y366021D01*
X43818Y365977D01*
X43939Y365930D01*
X44059Y365878D01*
X44177Y365823D01*
X44293Y365764D01*
X44407Y365702D01*
X44520Y365636D01*
X44630Y365567D01*
X44738Y365495D01*
X44844Y365419D01*
X44948Y365340D01*
X45049Y365258D01*
X45148Y365173D01*
X45244Y365085D01*
X45337Y364994D01*
X45427Y364900D01*
X45514Y364803D01*
X45599Y364704D01*
X45680Y364602D01*
X45758Y364498D01*
X45833Y364392D01*
X45905Y364283D01*
X45973Y364172D01*
X46038Y364059D01*
X46099Y363944D01*
X46157Y363827D01*
X46211Y363709D01*
X46262Y363589D01*
X46309Y363467D01*
X46352Y363344D01*
X46391Y363220D01*
X46427Y363095D01*
X46458Y362968D01*
X46486Y362841D01*
X46510Y362713D01*
X46530Y362584D01*
X46546Y362455D01*
X46558Y362325D01*
X46566Y362195D01*
X46570Y362065D01*
X46570Y361935D01*
X46566Y361805D01*
X46558Y361675D01*
X46546Y361545D01*
X46530Y361416D01*
X46510Y361287D01*
X46486Y361159D01*
X46458Y361032D01*
X46427Y360905D01*
X46391Y360780D01*
X46352Y360656D01*
X46309Y360533D01*
X46262Y360411D01*
X46211Y360291D01*
X46157Y360173D01*
X46099Y360056D01*
X46038Y359941D01*
X45973Y359828D01*
X45905Y359717D01*
X45833Y359608D01*
X45758Y359502D01*
X45680Y359398D01*
X45599Y359296D01*
X45514Y359197D01*
X45427Y359100D01*
X45337Y359006D01*
X45244Y358915D01*
X45148Y358827D01*
X45049Y358742D01*
X44948Y358660D01*
X44844Y358581D01*
X44738Y358505D01*
X44630Y358433D01*
X44520Y358364D01*
X44407Y358298D01*
X44293Y358236D01*
X44177Y358177D01*
X44059Y358122D01*
X43939Y358070D01*
X43818Y358023D01*
X43695Y357979D01*
X43571Y357938D01*
X43446Y357902D01*
X43320Y357869D01*
X43193Y357841D01*
X43065Y357816D01*
X42937Y357795D01*
X42807Y357778D01*
X42678Y357765D01*
X42548Y357756D01*
X42418Y357751D01*
X42287Y357750D01*
X42157Y357753D01*
X42027Y357760D01*
X41897Y357771D01*
X41768Y357786D01*
X41639Y357805D01*
X41511Y357828D01*
X41383Y357854D01*
X41257Y357885D01*
X41131Y357920D01*
X41007Y357958D01*
X40883Y358000D01*
X40762Y358046D01*
X40641Y358096D01*
X40522Y358149D01*
X40405Y358206D01*
X40290Y358266D01*
X40176Y358330D01*
X40065Y358398D01*
X39955Y358469D01*
X39848Y358543D01*
X39744Y358620D01*
X39641Y358701D01*
X39541Y358784D01*
X39444Y358871D01*
X39350Y358960D01*
X39258Y359053D01*
X39169Y359148D01*
X39083Y359246D01*
X39000Y359347D01*
X38920Y359450D01*
X38844Y359555D01*
X38771Y359663D01*
X38701Y359772D01*
X38634Y359884D01*
X38571Y359998D01*
X38511Y360114D01*
X38455Y360232D01*
X38403Y360351D01*
X38354Y360472D01*
X38309Y360594D01*
X38268Y360718D01*
X38231Y360842D01*
X38197Y360968D01*
X38167Y361095D01*
X38142Y361223D01*
X38120Y361351D01*
X38102Y361480D01*
X38088Y361610D01*
X38078Y361740D01*
X38072Y361870D01*
X38070Y362000D01*
X135125Y508000D02*
X135130Y508390D01*
X135144Y508779D01*
X135168Y509168D01*
X135201Y509556D01*
X135244Y509943D01*
X135297Y510329D01*
X135359Y510714D01*
X135430Y511097D01*
X135511Y511478D01*
X135601Y511857D01*
X135700Y512234D01*
X135809Y512608D01*
X135926Y512980D01*
X136053Y513348D01*
X136189Y513713D01*
X136333Y514075D01*
X136487Y514433D01*
X136649Y514787D01*
X136820Y515138D01*
X136999Y515483D01*
X137187Y515825D01*
X137384Y516161D01*
X137588Y516493D01*
X137800Y516820D01*
X138021Y517141D01*
X138249Y517457D01*
X138485Y517767D01*
X138728Y518071D01*
X138979Y518369D01*
X139237Y518661D01*
X139503Y518946D01*
X139775Y519225D01*
X140054Y519497D01*
X140339Y519763D01*
X140631Y520021D01*
X140929Y520272D01*
X141233Y520515D01*
X141543Y520751D01*
X141859Y520979D01*
X142180Y521200D01*
X142507Y521412D01*
X142839Y521616D01*
X143175Y521813D01*
X143517Y522001D01*
X143862Y522180D01*
X144213Y522351D01*
X144567Y522513D01*
X144925Y522667D01*
X145287Y522811D01*
X145652Y522947D01*
X146020Y523074D01*
X146392Y523191D01*
X146766Y523300D01*
X147143Y523399D01*
X147522Y523489D01*
X147903Y523570D01*
X148286Y523641D01*
X148671Y523703D01*
X149057Y523756D01*
X149444Y523799D01*
X149832Y523832D01*
X150221Y523856D01*
X150610Y523870D01*
X151000Y523875D01*
X151390Y523870D01*
X151779Y523856D01*
X152168Y523832D01*
X152556Y523799D01*
X152943Y523756D01*
X153329Y523703D01*
X153714Y523641D01*
X154097Y523570D01*
X154478Y523489D01*
X154857Y523399D01*
X155234Y523300D01*
X155608Y523191D01*
X155980Y523074D01*
X156348Y522947D01*
X156713Y522811D01*
X157075Y522667D01*
X157433Y522513D01*
X157787Y522351D01*
X158138Y522180D01*
X158483Y522001D01*
X158825Y521813D01*
X159161Y521616D01*
X159493Y521412D01*
X159820Y521200D01*
X160141Y520979D01*
X160457Y520751D01*
X160767Y520515D01*
X161071Y520272D01*
X161369Y520021D01*
X161661Y519763D01*
X161946Y519497D01*
X162225Y519225D01*
X162497Y518946D01*
X162763Y518661D01*
X163021Y518369D01*
X163272Y518071D01*
X163515Y517767D01*
X163751Y517457D01*
X163979Y517141D01*
X164200Y516820D01*
X164412Y516493D01*
X164616Y516161D01*
X164813Y515825D01*
X165001Y515483D01*
X165180Y515138D01*
X165351Y514787D01*
X165513Y514433D01*
X165667Y514075D01*
X165811Y513713D01*
X165947Y513348D01*
X166074Y512980D01*
X166191Y512608D01*
X166300Y512234D01*
X166399Y511857D01*
X166489Y511478D01*
X166570Y511097D01*
X166641Y510714D01*
X166703Y510329D01*
X166756Y509943D01*
X166799Y509556D01*
X166832Y509168D01*
X166856Y508779D01*
X166870Y508390D01*
X166875Y508000D01*
X166870Y507610D01*
X166856Y507221D01*
X166832Y506832D01*
X166799Y506444D01*
X166756Y506057D01*
X166703Y505671D01*
X166641Y505286D01*
X166570Y504903D01*
X166489Y504522D01*
X166399Y504143D01*
X166300Y503766D01*
X166191Y503392D01*
X166074Y503020D01*
X165947Y502652D01*
X165811Y502287D01*
X165667Y501925D01*
X165513Y501567D01*
X165351Y501213D01*
X165180Y500862D01*
X165001Y500517D01*
X164813Y500175D01*
X164616Y499839D01*
X164412Y499507D01*
X164200Y499180D01*
X163979Y498859D01*
X163751Y498543D01*
X163515Y498233D01*
X163272Y497929D01*
X163021Y497631D01*
X162763Y497339D01*
X162497Y497054D01*
X162225Y496775D01*
X161946Y496503D01*
X161661Y496237D01*
X161369Y495979D01*
X161071Y495728D01*
X160767Y495485D01*
X160457Y495249D01*
X160141Y495021D01*
X159820Y494800D01*
X159493Y494588D01*
X159161Y494384D01*
X158825Y494187D01*
X158483Y493999D01*
X158138Y493820D01*
X157787Y493649D01*
X157433Y493487D01*
X157075Y493333D01*
X156713Y493189D01*
X156348Y493053D01*
X155980Y492926D01*
X155608Y492809D01*
X155234Y492700D01*
X154857Y492601D01*
X154478Y492511D01*
X154097Y492430D01*
X153714Y492359D01*
X153329Y492297D01*
X152943Y492244D01*
X152556Y492201D01*
X152168Y492168D01*
X151779Y492144D01*
X151390Y492130D01*
X151000Y492125D01*
X150610Y492130D01*
X150221Y492144D01*
X149832Y492168D01*
X149444Y492201D01*
X149057Y492244D01*
X148671Y492297D01*
X148286Y492359D01*
X147903Y492430D01*
X147522Y492511D01*
X147143Y492601D01*
X146766Y492700D01*
X146392Y492809D01*
X146020Y492926D01*
X145652Y493053D01*
X145287Y493189D01*
X144925Y493333D01*
X144567Y493487D01*
X144213Y493649D01*
X143862Y493820D01*
X143517Y493999D01*
X143175Y494187D01*
X142839Y494384D01*
X142507Y494588D01*
X142180Y494800D01*
X141859Y495021D01*
X141543Y495249D01*
X141233Y495485D01*
X140929Y495728D01*
X140631Y495979D01*
X140339Y496237D01*
X140054Y496503D01*
X139775Y496775D01*
X139503Y497054D01*
X139237Y497339D01*
X138979Y497631D01*
X138728Y497929D01*
X138485Y498233D01*
X138249Y498543D01*
X138021Y498859D01*
X137800Y499180D01*
X137588Y499507D01*
X137384Y499839D01*
X137187Y500175D01*
X136999Y500517D01*
X136820Y500862D01*
X136649Y501213D01*
X136487Y501567D01*
X136333Y501925D01*
X136189Y502287D01*
X136053Y502652D01*
X135926Y503020D01*
X135809Y503392D01*
X135700Y503766D01*
X135601Y504143D01*
X135511Y504522D01*
X135430Y504903D01*
X135359Y505286D01*
X135297Y505671D01*
X135244Y506057D01*
X135201Y506444D01*
X135168Y506832D01*
X135144Y507221D01*
X135130Y507610D01*
X135125Y508000D01*
X643125Y355600D02*
X643130Y355990D01*
X643144Y356379D01*
X643168Y356768D01*
X643201Y357156D01*
X643244Y357543D01*
X643297Y357929D01*
X643359Y358314D01*
X643430Y358697D01*
X643511Y359078D01*
X643601Y359457D01*
X643700Y359834D01*
X643809Y360208D01*
X643926Y360580D01*
X644053Y360948D01*
X644189Y361313D01*
X644333Y361675D01*
X644487Y362033D01*
X644649Y362387D01*
X644820Y362738D01*
X644999Y363083D01*
X645187Y363425D01*
X645384Y363761D01*
X645588Y364093D01*
X645800Y364420D01*
X646021Y364741D01*
X646249Y365057D01*
X646485Y365367D01*
X646728Y365671D01*
X646979Y365969D01*
X647237Y366261D01*
X647503Y366546D01*
X647775Y366825D01*
X648054Y367097D01*
X648339Y367363D01*
X648631Y367621D01*
X648929Y367872D01*
X649233Y368115D01*
X649543Y368351D01*
X649859Y368579D01*
X650180Y368800D01*
X650507Y369012D01*
X650839Y369216D01*
X651175Y369413D01*
X651517Y369601D01*
X651862Y369780D01*
X652213Y369951D01*
X652567Y370113D01*
X652925Y370267D01*
X653287Y370411D01*
X653652Y370547D01*
X654020Y370674D01*
X654392Y370791D01*
X654766Y370900D01*
X655143Y370999D01*
X655522Y371089D01*
X655903Y371170D01*
X656286Y371241D01*
X656671Y371303D01*
X657057Y371356D01*
X657444Y371399D01*
X657832Y371432D01*
X658221Y371456D01*
X658610Y371470D01*
X659000Y371475D01*
X659390Y371470D01*
X659779Y371456D01*
X660168Y371432D01*
X660556Y371399D01*
X660943Y371356D01*
X661329Y371303D01*
X661714Y371241D01*
X662097Y371170D01*
X662478Y371089D01*
X662857Y370999D01*
X663234Y370900D01*
X663608Y370791D01*
X663980Y370674D01*
X664348Y370547D01*
X664713Y370411D01*
X665075Y370267D01*
X665433Y370113D01*
X665787Y369951D01*
X666138Y369780D01*
X666483Y369601D01*
X666825Y369413D01*
X667161Y369216D01*
X667493Y369012D01*
X667820Y368800D01*
X668141Y368579D01*
X668457Y368351D01*
X668767Y368115D01*
X669071Y367872D01*
X669369Y367621D01*
X669661Y367363D01*
X669946Y367097D01*
X670225Y366825D01*
X670497Y366546D01*
X670763Y366261D01*
X671021Y365969D01*
X671272Y365671D01*
X671515Y365367D01*
X671751Y365057D01*
X671979Y364741D01*
X672200Y364420D01*
X672412Y364093D01*
X672616Y363761D01*
X672813Y363425D01*
X673001Y363083D01*
X673180Y362738D01*
X673351Y362387D01*
X673513Y362033D01*
X673667Y361675D01*
X673811Y361313D01*
X673947Y360948D01*
X674074Y360580D01*
X674191Y360208D01*
X674300Y359834D01*
X674399Y359457D01*
X674489Y359078D01*
X674570Y358697D01*
X674641Y358314D01*
X674703Y357929D01*
X674756Y357543D01*
X674799Y357156D01*
X674832Y356768D01*
X674856Y356379D01*
X674870Y355990D01*
X674875Y355600D01*
X674870Y355210D01*
X674856Y354821D01*
X674832Y354432D01*
X674799Y354044D01*
X674756Y353657D01*
X674703Y353271D01*
X674641Y352886D01*
X674570Y352503D01*
X674489Y352122D01*
X674399Y351743D01*
X674300Y351366D01*
X674191Y350992D01*
X674074Y350620D01*
X673947Y350252D01*
X673811Y349887D01*
X673667Y349525D01*
X673513Y349167D01*
X673351Y348813D01*
X673180Y348462D01*
X673001Y348117D01*
X672813Y347775D01*
X672616Y347439D01*
X672412Y347107D01*
X672200Y346780D01*
X671979Y346459D01*
X671751Y346143D01*
X671515Y345833D01*
X671272Y345529D01*
X671021Y345231D01*
X670763Y344939D01*
X670497Y344654D01*
X670225Y344375D01*
X669946Y344103D01*
X669661Y343837D01*
X669369Y343579D01*
X669071Y343328D01*
X668767Y343085D01*
X668457Y342849D01*
X668141Y342621D01*
X667820Y342400D01*
X667493Y342188D01*
X667161Y341984D01*
X666825Y341787D01*
X666483Y341599D01*
X666138Y341420D01*
X665787Y341249D01*
X665433Y341087D01*
X665075Y340933D01*
X664713Y340789D01*
X664348Y340653D01*
X663980Y340526D01*
X663608Y340409D01*
X663234Y340300D01*
X662857Y340201D01*
X662478Y340111D01*
X662097Y340030D01*
X661714Y339959D01*
X661329Y339897D01*
X660943Y339844D01*
X660556Y339801D01*
X660168Y339768D01*
X659779Y339744D01*
X659390Y339730D01*
X659000Y339725D01*
X658610Y339730D01*
X658221Y339744D01*
X657832Y339768D01*
X657444Y339801D01*
X657057Y339844D01*
X656671Y339897D01*
X656286Y339959D01*
X655903Y340030D01*
X655522Y340111D01*
X655143Y340201D01*
X654766Y340300D01*
X654392Y340409D01*
X654020Y340526D01*
X653652Y340653D01*
X653287Y340789D01*
X652925Y340933D01*
X652567Y341087D01*
X652213Y341249D01*
X651862Y341420D01*
X651517Y341599D01*
X651175Y341787D01*
X650839Y341984D01*
X650507Y342188D01*
X650180Y342400D01*
X649859Y342621D01*
X649543Y342849D01*
X649233Y343085D01*
X648929Y343328D01*
X648631Y343579D01*
X648339Y343837D01*
X648054Y344103D01*
X647775Y344375D01*
X647503Y344654D01*
X647237Y344939D01*
X646979Y345231D01*
X646728Y345529D01*
X646485Y345833D01*
X646249Y346143D01*
X646021Y346459D01*
X645800Y346780D01*
X645588Y347107D01*
X645384Y347439D01*
X645187Y347775D01*
X644999Y348117D01*
X644820Y348462D01*
X644649Y348813D01*
X644487Y349167D01*
X644333Y349525D01*
X644189Y349887D01*
X644053Y350252D01*
X643926Y350620D01*
X643809Y350992D01*
X643700Y351366D01*
X643601Y351743D01*
X643511Y352122D01*
X643430Y352503D01*
X643359Y352886D01*
X643297Y353271D01*
X643244Y353657D01*
X643201Y354044D01*
X643168Y354432D01*
X643144Y354821D01*
X643130Y355210D01*
X643125Y355600D01*
X643125Y76200D02*
X643130Y76590D01*
X643144Y76979D01*
X643168Y77368D01*
X643201Y77756D01*
X643244Y78143D01*
X643297Y78529D01*
X643359Y78914D01*
X643430Y79297D01*
X643511Y79678D01*
X643601Y80057D01*
X643700Y80434D01*
X643809Y80808D01*
X643926Y81180D01*
X644053Y81548D01*
X644189Y81913D01*
X644333Y82275D01*
X644487Y82633D01*
X644649Y82987D01*
X644820Y83338D01*
X644999Y83683D01*
X645187Y84025D01*
X645384Y84361D01*
X645588Y84693D01*
X645800Y85020D01*
X646021Y85341D01*
X646249Y85657D01*
X646485Y85967D01*
X646728Y86271D01*
X646979Y86569D01*
X647237Y86861D01*
X647503Y87146D01*
X647775Y87425D01*
X648054Y87697D01*
X648339Y87963D01*
X648631Y88221D01*
X648929Y88472D01*
X649233Y88715D01*
X649543Y88951D01*
X649859Y89179D01*
X650180Y89400D01*
X650507Y89612D01*
X650839Y89816D01*
X651175Y90013D01*
X651517Y90201D01*
X651862Y90380D01*
X652213Y90551D01*
X652567Y90713D01*
X652925Y90867D01*
X653287Y91011D01*
X653652Y91147D01*
X654020Y91274D01*
X654392Y91391D01*
X654766Y91500D01*
X655143Y91599D01*
X655522Y91689D01*
X655903Y91770D01*
X656286Y91841D01*
X656671Y91903D01*
X657057Y91956D01*
X657444Y91999D01*
X657832Y92032D01*
X658221Y92056D01*
X658610Y92070D01*
X659000Y92075D01*
X659390Y92070D01*
X659779Y92056D01*
X660168Y92032D01*
X660556Y91999D01*
X660943Y91956D01*
X661329Y91903D01*
X661714Y91841D01*
X662097Y91770D01*
X662478Y91689D01*
X662857Y91599D01*
X663234Y91500D01*
X663608Y91391D01*
X663980Y91274D01*
X664348Y91147D01*
X664713Y91011D01*
X665075Y90867D01*
X665433Y90713D01*
X665787Y90551D01*
X666138Y90380D01*
X666483Y90201D01*
X666825Y90013D01*
X667161Y89816D01*
X667493Y89612D01*
X667820Y89400D01*
X668141Y89179D01*
X668457Y88951D01*
X668767Y88715D01*
X669071Y88472D01*
X669369Y88221D01*
X669661Y87963D01*
X669946Y87697D01*
X670225Y87425D01*
X670497Y87146D01*
X670763Y86861D01*
X671021Y86569D01*
X671272Y86271D01*
X671515Y85967D01*
X671751Y85657D01*
X671979Y85341D01*
X672200Y85020D01*
X672412Y84693D01*
X672616Y84361D01*
X672813Y84025D01*
X673001Y83683D01*
X673180Y83338D01*
X673351Y82987D01*
X673513Y82633D01*
X673667Y82275D01*
X673811Y81913D01*
X673947Y81548D01*
X674074Y81180D01*
X674191Y80808D01*
X674300Y80434D01*
X674399Y80057D01*
X674489Y79678D01*
X674570Y79297D01*
X674641Y78914D01*
X674703Y78529D01*
X674756Y78143D01*
X674799Y77756D01*
X674832Y77368D01*
X674856Y76979D01*
X674870Y76590D01*
X674875Y76200D01*
X674870Y75810D01*
X674856Y75421D01*
X674832Y75032D01*
X674799Y74644D01*
X674756Y74257D01*
X674703Y73871D01*
X674641Y73486D01*
X674570Y73103D01*
X674489Y72722D01*
X674399Y72343D01*
X674300Y71966D01*
X674191Y71592D01*
X674074Y71220D01*
X673947Y70852D01*
X673811Y70487D01*
X673667Y70125D01*
X673513Y69767D01*
X673351Y69413D01*
X673180Y69062D01*
X673001Y68717D01*
X672813Y68375D01*
X672616Y68039D01*
X672412Y67707D01*
X672200Y67380D01*
X671979Y67059D01*
X671751Y66743D01*
X671515Y66433D01*
X671272Y66129D01*
X671021Y65831D01*
X670763Y65539D01*
X670497Y65254D01*
X670225Y64975D01*
X669946Y64703D01*
X669661Y64437D01*
X669369Y64179D01*
X669071Y63928D01*
X668767Y63685D01*
X668457Y63449D01*
X668141Y63221D01*
X667820Y63000D01*
X667493Y62788D01*
X667161Y62584D01*
X666825Y62387D01*
X666483Y62199D01*
X666138Y62020D01*
X665787Y61849D01*
X665433Y61687D01*
X665075Y61533D01*
X664713Y61389D01*
X664348Y61253D01*
X663980Y61126D01*
X663608Y61009D01*
X663234Y60900D01*
X662857Y60801D01*
X662478Y60711D01*
X662097Y60630D01*
X661714Y60559D01*
X661329Y60497D01*
X660943Y60444D01*
X660556Y60401D01*
X660168Y60368D01*
X659779Y60344D01*
X659390Y60330D01*
X659000Y60325D01*
X658610Y60330D01*
X658221Y60344D01*
X657832Y60368D01*
X657444Y60401D01*
X657057Y60444D01*
X656671Y60497D01*
X656286Y60559D01*
X655903Y60630D01*
X655522Y60711D01*
X655143Y60801D01*
X654766Y60900D01*
X654392Y61009D01*
X654020Y61126D01*
X653652Y61253D01*
X653287Y61389D01*
X652925Y61533D01*
X652567Y61687D01*
X652213Y61849D01*
X651862Y62020D01*
X651517Y62199D01*
X651175Y62387D01*
X650839Y62584D01*
X650507Y62788D01*
X650180Y63000D01*
X649859Y63221D01*
X649543Y63449D01*
X649233Y63685D01*
X648929Y63928D01*
X648631Y64179D01*
X648339Y64437D01*
X648054Y64703D01*
X647775Y64975D01*
X647503Y65254D01*
X647237Y65539D01*
X646979Y65831D01*
X646728Y66129D01*
X646485Y66433D01*
X646249Y66743D01*
X646021Y67059D01*
X645800Y67380D01*
X645588Y67707D01*
X645384Y68039D01*
X645187Y68375D01*
X644999Y68717D01*
X644820Y69062D01*
X644649Y69413D01*
X644487Y69767D01*
X644333Y70125D01*
X644189Y70487D01*
X644053Y70852D01*
X643926Y71220D01*
X643809Y71592D01*
X643700Y71966D01*
X643601Y72343D01*
X643511Y72722D01*
X643430Y73103D01*
X643359Y73486D01*
X643297Y73871D01*
X643244Y74257D01*
X643201Y74644D01*
X643168Y75032D01*
X643144Y75421D01*
X643130Y75810D01*
X643125Y76200D01*
X122425Y25400D02*
X122430Y25790D01*
X122444Y26179D01*
X122468Y26568D01*
X122501Y26956D01*
X122544Y27343D01*
X122597Y27729D01*
X122659Y28114D01*
X122730Y28497D01*
X122811Y28878D01*
X122901Y29257D01*
X123000Y29634D01*
X123109Y30008D01*
X123226Y30380D01*
X123353Y30748D01*
X123489Y31113D01*
X123633Y31475D01*
X123787Y31833D01*
X123949Y32187D01*
X124120Y32538D01*
X124299Y32883D01*
X124487Y33225D01*
X124684Y33561D01*
X124888Y33893D01*
X125100Y34220D01*
X125321Y34541D01*
X125549Y34857D01*
X125785Y35167D01*
X126028Y35471D01*
X126279Y35769D01*
X126537Y36061D01*
X126803Y36346D01*
X127075Y36625D01*
X127354Y36897D01*
X127639Y37163D01*
X127931Y37421D01*
X128229Y37672D01*
X128533Y37915D01*
X128843Y38151D01*
X129159Y38379D01*
X129480Y38600D01*
X129807Y38812D01*
X130139Y39016D01*
X130475Y39213D01*
X130817Y39401D01*
X131162Y39580D01*
X131513Y39751D01*
X131867Y39913D01*
X132225Y40067D01*
X132587Y40211D01*
X132952Y40347D01*
X133320Y40474D01*
X133692Y40591D01*
X134066Y40700D01*
X134443Y40799D01*
X134822Y40889D01*
X135203Y40970D01*
X135586Y41041D01*
X135971Y41103D01*
X136357Y41156D01*
X136744Y41199D01*
X137132Y41232D01*
X137521Y41256D01*
X137910Y41270D01*
X138300Y41275D01*
X138690Y41270D01*
X139079Y41256D01*
X139468Y41232D01*
X139856Y41199D01*
X140243Y41156D01*
X140629Y41103D01*
X141014Y41041D01*
X141397Y40970D01*
X141778Y40889D01*
X142157Y40799D01*
X142534Y40700D01*
X142908Y40591D01*
X143280Y40474D01*
X143648Y40347D01*
X144013Y40211D01*
X144375Y40067D01*
X144733Y39913D01*
X145087Y39751D01*
X145438Y39580D01*
X145783Y39401D01*
X146125Y39213D01*
X146461Y39016D01*
X146793Y38812D01*
X147120Y38600D01*
X147441Y38379D01*
X147757Y38151D01*
X148067Y37915D01*
X148371Y37672D01*
X148669Y37421D01*
X148961Y37163D01*
X149246Y36897D01*
X149525Y36625D01*
X149797Y36346D01*
X150063Y36061D01*
X150321Y35769D01*
X150572Y35471D01*
X150815Y35167D01*
X151051Y34857D01*
X151279Y34541D01*
X151500Y34220D01*
X151712Y33893D01*
X151916Y33561D01*
X152113Y33225D01*
X152301Y32883D01*
X152480Y32538D01*
X152651Y32187D01*
X152813Y31833D01*
X152967Y31475D01*
X153111Y31113D01*
X153247Y30748D01*
X153374Y30380D01*
X153491Y30008D01*
X153600Y29634D01*
X153699Y29257D01*
X153789Y28878D01*
X153870Y28497D01*
X153941Y28114D01*
X154003Y27729D01*
X154056Y27343D01*
X154099Y26956D01*
X154132Y26568D01*
X154156Y26179D01*
X154170Y25790D01*
X154175Y25400D01*
X154170Y25010D01*
X154156Y24621D01*
X154132Y24232D01*
X154099Y23844D01*
X154056Y23457D01*
X154003Y23071D01*
X153941Y22686D01*
X153870Y22303D01*
X153789Y21922D01*
X153699Y21543D01*
X153600Y21166D01*
X153491Y20792D01*
X153374Y20420D01*
X153247Y20052D01*
X153111Y19687D01*
X152967Y19325D01*
X152813Y18967D01*
X152651Y18613D01*
X152480Y18262D01*
X152301Y17917D01*
X152113Y17575D01*
X151916Y17239D01*
X151712Y16907D01*
X151500Y16580D01*
X151279Y16259D01*
X151051Y15943D01*
X150815Y15633D01*
X150572Y15329D01*
X150321Y15031D01*
X150063Y14739D01*
X149797Y14454D01*
X149525Y14175D01*
X149246Y13903D01*
X148961Y13637D01*
X148669Y13379D01*
X148371Y13128D01*
X148067Y12885D01*
X147757Y12649D01*
X147441Y12421D01*
X147120Y12200D01*
X146793Y11988D01*
X146461Y11784D01*
X146125Y11587D01*
X145783Y11399D01*
X145438Y11220D01*
X145087Y11049D01*
X144733Y10887D01*
X144375Y10733D01*
X144013Y10589D01*
X143648Y10453D01*
X143280Y10326D01*
X142908Y10209D01*
X142534Y10100D01*
X142157Y10001D01*
X141778Y9911D01*
X141397Y9830D01*
X141014Y9759D01*
X140629Y9697D01*
X140243Y9644D01*
X139856Y9601D01*
X139468Y9568D01*
X139079Y9544D01*
X138690Y9530D01*
X138300Y9525D01*
X137910Y9530D01*
X137521Y9544D01*
X137132Y9568D01*
X136744Y9601D01*
X136357Y9644D01*
X135971Y9697D01*
X135586Y9759D01*
X135203Y9830D01*
X134822Y9911D01*
X134443Y10001D01*
X134066Y10100D01*
X133692Y10209D01*
X133320Y10326D01*
X132952Y10453D01*
X132587Y10589D01*
X132225Y10733D01*
X131867Y10887D01*
X131513Y11049D01*
X131162Y11220D01*
X130817Y11399D01*
X130475Y11587D01*
X130139Y11784D01*
X129807Y11988D01*
X129480Y12200D01*
X129159Y12421D01*
X128843Y12649D01*
X128533Y12885D01*
X128229Y13128D01*
X127931Y13379D01*
X127639Y13637D01*
X127354Y13903D01*
X127075Y14175D01*
X126803Y14454D01*
X126537Y14739D01*
X126279Y15031D01*
X126028Y15329D01*
X125785Y15633D01*
X125549Y15943D01*
X125321Y16259D01*
X125100Y16580D01*
X124888Y16907D01*
X124684Y17239D01*
X124487Y17575D01*
X124299Y17917D01*
X124120Y18262D01*
X123949Y18613D01*
X123787Y18967D01*
X123633Y19325D01*
X123489Y19687D01*
X123353Y20052D01*
X123226Y20420D01*
X123109Y20792D01*
X123000Y21166D01*
X122901Y21543D01*
X122811Y21922D01*
X122730Y22303D01*
X122659Y22686D01*
X122597Y23071D01*
X122544Y23457D01*
X122501Y23844D01*
X122468Y24232D01*
X122444Y24621D01*
X122430Y25010D01*
X122425Y25400D01*
M02*
