G04 EAGLE Gerber RS-274X export*
G75*
%MOMM*%
%FSLAX34Y34*%
%LPD*%
%INTop Paste*%
%IPPOS*%
%AMOC8*
5,1,8,0,0,1.08239X$1,22.5*%
G01*
%ADD10R,1.450000X0.400000*%
%ADD11R,1.500000X1.800000*%
%ADD12R,0.700000X1.500000*%
%ADD13R,0.300000X1.450000*%
%ADD14R,1.475000X0.300000*%
%ADD15R,1.422400X0.228600*%
%ADD16R,0.228600X1.422400*%
%ADD17R,1.100000X1.000000*%
%ADD18R,1.000000X1.100000*%
%ADD19R,1.550000X1.300000*%
%ADD20R,0.550000X1.200000*%
%ADD21R,0.630000X0.830000*%
%ADD22C,0.300000*%


D10*
X47570Y381000D03*
X47570Y387500D03*
X47570Y394000D03*
X47570Y374500D03*
X47570Y368000D03*
D11*
X20320Y417840D03*
D12*
X20320Y381000D03*
D11*
X20320Y344160D03*
D13*
X209900Y406050D03*
X204900Y406050D03*
X199900Y406050D03*
X194900Y406050D03*
X189900Y406050D03*
X184900Y406050D03*
X179900Y406050D03*
X174900Y406050D03*
X169900Y406050D03*
X164900Y406050D03*
X159900Y406050D03*
X154900Y406050D03*
X149900Y406050D03*
X144900Y406050D03*
X139900Y406050D03*
X134900Y406050D03*
X129900Y406050D03*
X124900Y406050D03*
X119900Y406050D03*
X114900Y406050D03*
X109900Y406050D03*
X104900Y406050D03*
X99900Y406050D03*
X94900Y406050D03*
X94900Y330550D03*
X99900Y330550D03*
X104900Y330550D03*
X109900Y330550D03*
X114900Y330550D03*
X119900Y330550D03*
X124900Y330550D03*
X129900Y330550D03*
X134900Y330550D03*
X139900Y330550D03*
X144900Y330550D03*
X149900Y330550D03*
X154900Y330550D03*
X159900Y330550D03*
X164900Y330550D03*
X169900Y330550D03*
X174900Y330550D03*
X179900Y330550D03*
X184900Y330550D03*
X189900Y330550D03*
X194900Y330550D03*
X199900Y330550D03*
X204900Y330550D03*
X209900Y330550D03*
D14*
G36*
X74233Y144264D02*
X63804Y133835D01*
X61683Y135956D01*
X72112Y146385D01*
X74233Y144264D01*
G37*
G36*
X77768Y140729D02*
X67339Y130300D01*
X65218Y132421D01*
X75647Y142850D01*
X77768Y140729D01*
G37*
G36*
X81304Y137193D02*
X70875Y126764D01*
X68754Y128885D01*
X79183Y139314D01*
X81304Y137193D01*
G37*
G36*
X84839Y133658D02*
X74410Y123229D01*
X72289Y125350D01*
X82718Y135779D01*
X84839Y133658D01*
G37*
G36*
X88375Y130122D02*
X77946Y119693D01*
X75825Y121814D01*
X86254Y132243D01*
X88375Y130122D01*
G37*
G36*
X91910Y126587D02*
X81481Y116158D01*
X79360Y118279D01*
X89789Y128708D01*
X91910Y126587D01*
G37*
G36*
X95446Y123051D02*
X85017Y112622D01*
X82896Y114743D01*
X93325Y125172D01*
X95446Y123051D01*
G37*
G36*
X98981Y119516D02*
X88552Y109087D01*
X86431Y111208D01*
X96860Y121637D01*
X98981Y119516D01*
G37*
G36*
X102517Y115980D02*
X92088Y105551D01*
X89967Y107672D01*
X100396Y118101D01*
X102517Y115980D01*
G37*
G36*
X106052Y112445D02*
X95623Y102016D01*
X93502Y104137D01*
X103931Y114566D01*
X106052Y112445D01*
G37*
G36*
X109588Y108909D02*
X99159Y98480D01*
X97038Y100601D01*
X107467Y111030D01*
X109588Y108909D01*
G37*
G36*
X113124Y105374D02*
X102695Y94945D01*
X100574Y97066D01*
X111003Y107495D01*
X113124Y105374D01*
G37*
G36*
X116659Y101838D02*
X106230Y91409D01*
X104109Y93530D01*
X114538Y103959D01*
X116659Y101838D01*
G37*
G36*
X120195Y98303D02*
X109766Y87874D01*
X107645Y89995D01*
X118074Y100424D01*
X120195Y98303D01*
G37*
G36*
X123730Y94767D02*
X113301Y84338D01*
X111180Y86459D01*
X121609Y96888D01*
X123730Y94767D01*
G37*
G36*
X127266Y91231D02*
X116837Y80802D01*
X114716Y82923D01*
X125145Y93352D01*
X127266Y91231D01*
G37*
G36*
X130801Y87696D02*
X120372Y77267D01*
X118251Y79388D01*
X128680Y89817D01*
X130801Y87696D01*
G37*
G36*
X134337Y84160D02*
X123908Y73731D01*
X121787Y75852D01*
X132216Y86281D01*
X134337Y84160D01*
G37*
G36*
X137872Y80625D02*
X127443Y70196D01*
X125322Y72317D01*
X135751Y82746D01*
X137872Y80625D01*
G37*
G36*
X141408Y77089D02*
X130979Y66660D01*
X128858Y68781D01*
X139287Y79210D01*
X141408Y77089D01*
G37*
G36*
X144943Y73554D02*
X134514Y63125D01*
X132393Y65246D01*
X142822Y75675D01*
X144943Y73554D01*
G37*
G36*
X148479Y70018D02*
X138050Y59589D01*
X135929Y61710D01*
X146358Y72139D01*
X148479Y70018D01*
G37*
G36*
X152014Y66483D02*
X141585Y56054D01*
X139464Y58175D01*
X149893Y68604D01*
X152014Y66483D01*
G37*
G36*
X155550Y62947D02*
X145121Y52518D01*
X143000Y54639D01*
X153429Y65068D01*
X155550Y62947D01*
G37*
G36*
X159085Y59412D02*
X148656Y48983D01*
X146535Y51104D01*
X156964Y61533D01*
X159085Y59412D01*
G37*
G36*
X173236Y61533D02*
X183665Y51104D01*
X181544Y48983D01*
X171115Y59412D01*
X173236Y61533D01*
G37*
G36*
X176771Y65068D02*
X187200Y54639D01*
X185079Y52518D01*
X174650Y62947D01*
X176771Y65068D01*
G37*
G36*
X180307Y68604D02*
X190736Y58175D01*
X188615Y56054D01*
X178186Y66483D01*
X180307Y68604D01*
G37*
G36*
X183842Y72139D02*
X194271Y61710D01*
X192150Y59589D01*
X181721Y70018D01*
X183842Y72139D01*
G37*
G36*
X187378Y75675D02*
X197807Y65246D01*
X195686Y63125D01*
X185257Y73554D01*
X187378Y75675D01*
G37*
G36*
X190913Y79210D02*
X201342Y68781D01*
X199221Y66660D01*
X188792Y77089D01*
X190913Y79210D01*
G37*
G36*
X194449Y82746D02*
X204878Y72317D01*
X202757Y70196D01*
X192328Y80625D01*
X194449Y82746D01*
G37*
G36*
X197984Y86281D02*
X208413Y75852D01*
X206292Y73731D01*
X195863Y84160D01*
X197984Y86281D01*
G37*
G36*
X201520Y89817D02*
X211949Y79388D01*
X209828Y77267D01*
X199399Y87696D01*
X201520Y89817D01*
G37*
G36*
X205055Y93352D02*
X215484Y82923D01*
X213363Y80802D01*
X202934Y91231D01*
X205055Y93352D01*
G37*
G36*
X208591Y96888D02*
X219020Y86459D01*
X216899Y84338D01*
X206470Y94767D01*
X208591Y96888D01*
G37*
G36*
X212126Y100424D02*
X222555Y89995D01*
X220434Y87874D01*
X210005Y98303D01*
X212126Y100424D01*
G37*
G36*
X215662Y103959D02*
X226091Y93530D01*
X223970Y91409D01*
X213541Y101838D01*
X215662Y103959D01*
G37*
G36*
X219197Y107495D02*
X229626Y97066D01*
X227505Y94945D01*
X217076Y105374D01*
X219197Y107495D01*
G37*
G36*
X222733Y111030D02*
X233162Y100601D01*
X231041Y98480D01*
X220612Y108909D01*
X222733Y111030D01*
G37*
G36*
X226269Y114566D02*
X236698Y104137D01*
X234577Y102016D01*
X224148Y112445D01*
X226269Y114566D01*
G37*
G36*
X229804Y118101D02*
X240233Y107672D01*
X238112Y105551D01*
X227683Y115980D01*
X229804Y118101D01*
G37*
G36*
X233340Y121637D02*
X243769Y111208D01*
X241648Y109087D01*
X231219Y119516D01*
X233340Y121637D01*
G37*
G36*
X236875Y125172D02*
X247304Y114743D01*
X245183Y112622D01*
X234754Y123051D01*
X236875Y125172D01*
G37*
G36*
X240411Y128708D02*
X250840Y118279D01*
X248719Y116158D01*
X238290Y126587D01*
X240411Y128708D01*
G37*
G36*
X243946Y132243D02*
X254375Y121814D01*
X252254Y119693D01*
X241825Y130122D01*
X243946Y132243D01*
G37*
G36*
X247482Y135779D02*
X257911Y125350D01*
X255790Y123229D01*
X245361Y133658D01*
X247482Y135779D01*
G37*
G36*
X251017Y139314D02*
X261446Y128885D01*
X259325Y126764D01*
X248896Y137193D01*
X251017Y139314D01*
G37*
G36*
X254553Y142850D02*
X264982Y132421D01*
X262861Y130300D01*
X252432Y140729D01*
X254553Y142850D01*
G37*
G36*
X258088Y146385D02*
X268517Y135956D01*
X266396Y133835D01*
X255967Y144264D01*
X258088Y146385D01*
G37*
G36*
X268517Y168844D02*
X258088Y158415D01*
X255967Y160536D01*
X266396Y170965D01*
X268517Y168844D01*
G37*
G36*
X264982Y172379D02*
X254553Y161950D01*
X252432Y164071D01*
X262861Y174500D01*
X264982Y172379D01*
G37*
G36*
X261446Y175915D02*
X251017Y165486D01*
X248896Y167607D01*
X259325Y178036D01*
X261446Y175915D01*
G37*
G36*
X257911Y179450D02*
X247482Y169021D01*
X245361Y171142D01*
X255790Y181571D01*
X257911Y179450D01*
G37*
G36*
X254375Y182986D02*
X243946Y172557D01*
X241825Y174678D01*
X252254Y185107D01*
X254375Y182986D01*
G37*
G36*
X250840Y186521D02*
X240411Y176092D01*
X238290Y178213D01*
X248719Y188642D01*
X250840Y186521D01*
G37*
G36*
X247304Y190057D02*
X236875Y179628D01*
X234754Y181749D01*
X245183Y192178D01*
X247304Y190057D01*
G37*
G36*
X243769Y193592D02*
X233340Y183163D01*
X231219Y185284D01*
X241648Y195713D01*
X243769Y193592D01*
G37*
G36*
X240233Y197128D02*
X229804Y186699D01*
X227683Y188820D01*
X238112Y199249D01*
X240233Y197128D01*
G37*
G36*
X236698Y200663D02*
X226269Y190234D01*
X224148Y192355D01*
X234577Y202784D01*
X236698Y200663D01*
G37*
G36*
X233162Y204199D02*
X222733Y193770D01*
X220612Y195891D01*
X231041Y206320D01*
X233162Y204199D01*
G37*
G36*
X229626Y207734D02*
X219197Y197305D01*
X217076Y199426D01*
X227505Y209855D01*
X229626Y207734D01*
G37*
G36*
X226091Y211270D02*
X215662Y200841D01*
X213541Y202962D01*
X223970Y213391D01*
X226091Y211270D01*
G37*
G36*
X222555Y214805D02*
X212126Y204376D01*
X210005Y206497D01*
X220434Y216926D01*
X222555Y214805D01*
G37*
G36*
X219020Y218341D02*
X208591Y207912D01*
X206470Y210033D01*
X216899Y220462D01*
X219020Y218341D01*
G37*
G36*
X215484Y221877D02*
X205055Y211448D01*
X202934Y213569D01*
X213363Y223998D01*
X215484Y221877D01*
G37*
G36*
X211949Y225412D02*
X201520Y214983D01*
X199399Y217104D01*
X209828Y227533D01*
X211949Y225412D01*
G37*
G36*
X208413Y228948D02*
X197984Y218519D01*
X195863Y220640D01*
X206292Y231069D01*
X208413Y228948D01*
G37*
G36*
X204878Y232483D02*
X194449Y222054D01*
X192328Y224175D01*
X202757Y234604D01*
X204878Y232483D01*
G37*
G36*
X201342Y236019D02*
X190913Y225590D01*
X188792Y227711D01*
X199221Y238140D01*
X201342Y236019D01*
G37*
G36*
X197807Y239554D02*
X187378Y229125D01*
X185257Y231246D01*
X195686Y241675D01*
X197807Y239554D01*
G37*
G36*
X194271Y243090D02*
X183842Y232661D01*
X181721Y234782D01*
X192150Y245211D01*
X194271Y243090D01*
G37*
G36*
X190736Y246625D02*
X180307Y236196D01*
X178186Y238317D01*
X188615Y248746D01*
X190736Y246625D01*
G37*
G36*
X187200Y250161D02*
X176771Y239732D01*
X174650Y241853D01*
X185079Y252282D01*
X187200Y250161D01*
G37*
G36*
X183665Y253696D02*
X173236Y243267D01*
X171115Y245388D01*
X181544Y255817D01*
X183665Y253696D01*
G37*
G36*
X148656Y255817D02*
X159085Y245388D01*
X156964Y243267D01*
X146535Y253696D01*
X148656Y255817D01*
G37*
G36*
X145121Y252282D02*
X155550Y241853D01*
X153429Y239732D01*
X143000Y250161D01*
X145121Y252282D01*
G37*
G36*
X141585Y248746D02*
X152014Y238317D01*
X149893Y236196D01*
X139464Y246625D01*
X141585Y248746D01*
G37*
G36*
X138050Y245211D02*
X148479Y234782D01*
X146358Y232661D01*
X135929Y243090D01*
X138050Y245211D01*
G37*
G36*
X134514Y241675D02*
X144943Y231246D01*
X142822Y229125D01*
X132393Y239554D01*
X134514Y241675D01*
G37*
G36*
X130979Y238140D02*
X141408Y227711D01*
X139287Y225590D01*
X128858Y236019D01*
X130979Y238140D01*
G37*
G36*
X127443Y234604D02*
X137872Y224175D01*
X135751Y222054D01*
X125322Y232483D01*
X127443Y234604D01*
G37*
G36*
X123908Y231069D02*
X134337Y220640D01*
X132216Y218519D01*
X121787Y228948D01*
X123908Y231069D01*
G37*
G36*
X120372Y227533D02*
X130801Y217104D01*
X128680Y214983D01*
X118251Y225412D01*
X120372Y227533D01*
G37*
G36*
X116837Y223998D02*
X127266Y213569D01*
X125145Y211448D01*
X114716Y221877D01*
X116837Y223998D01*
G37*
G36*
X113301Y220462D02*
X123730Y210033D01*
X121609Y207912D01*
X111180Y218341D01*
X113301Y220462D01*
G37*
G36*
X109766Y216926D02*
X120195Y206497D01*
X118074Y204376D01*
X107645Y214805D01*
X109766Y216926D01*
G37*
G36*
X106230Y213391D02*
X116659Y202962D01*
X114538Y200841D01*
X104109Y211270D01*
X106230Y213391D01*
G37*
G36*
X102695Y209855D02*
X113124Y199426D01*
X111003Y197305D01*
X100574Y207734D01*
X102695Y209855D01*
G37*
G36*
X99159Y206320D02*
X109588Y195891D01*
X107467Y193770D01*
X97038Y204199D01*
X99159Y206320D01*
G37*
G36*
X95623Y202784D02*
X106052Y192355D01*
X103931Y190234D01*
X93502Y200663D01*
X95623Y202784D01*
G37*
G36*
X92088Y199249D02*
X102517Y188820D01*
X100396Y186699D01*
X89967Y197128D01*
X92088Y199249D01*
G37*
G36*
X88552Y195713D02*
X98981Y185284D01*
X96860Y183163D01*
X86431Y193592D01*
X88552Y195713D01*
G37*
G36*
X85017Y192178D02*
X95446Y181749D01*
X93325Y179628D01*
X82896Y190057D01*
X85017Y192178D01*
G37*
G36*
X81481Y188642D02*
X91910Y178213D01*
X89789Y176092D01*
X79360Y186521D01*
X81481Y188642D01*
G37*
G36*
X77946Y185107D02*
X88375Y174678D01*
X86254Y172557D01*
X75825Y182986D01*
X77946Y185107D01*
G37*
G36*
X74410Y181571D02*
X84839Y171142D01*
X82718Y169021D01*
X72289Y179450D01*
X74410Y181571D01*
G37*
G36*
X70875Y178036D02*
X81304Y167607D01*
X79183Y165486D01*
X68754Y175915D01*
X70875Y178036D01*
G37*
G36*
X67339Y174500D02*
X77768Y164071D01*
X75647Y161950D01*
X65218Y172379D01*
X67339Y174500D01*
G37*
G36*
X63804Y170965D02*
X74233Y160536D01*
X72112Y158415D01*
X61683Y168844D01*
X63804Y170965D01*
G37*
G36*
X414536Y146623D02*
X424965Y136194D01*
X422844Y134073D01*
X412415Y144502D01*
X414536Y146623D01*
G37*
G36*
X418071Y150158D02*
X428500Y139729D01*
X426379Y137608D01*
X415950Y148037D01*
X418071Y150158D01*
G37*
G36*
X421607Y153694D02*
X432036Y143265D01*
X429915Y141144D01*
X419486Y151573D01*
X421607Y153694D01*
G37*
G36*
X425142Y157229D02*
X435571Y146800D01*
X433450Y144679D01*
X423021Y155108D01*
X425142Y157229D01*
G37*
G36*
X428678Y160765D02*
X439107Y150336D01*
X436986Y148215D01*
X426557Y158644D01*
X428678Y160765D01*
G37*
G36*
X432213Y164300D02*
X442642Y153871D01*
X440521Y151750D01*
X430092Y162179D01*
X432213Y164300D01*
G37*
G36*
X435749Y167836D02*
X446178Y157407D01*
X444057Y155286D01*
X433628Y165715D01*
X435749Y167836D01*
G37*
G36*
X439284Y171371D02*
X449713Y160942D01*
X447592Y158821D01*
X437163Y169250D01*
X439284Y171371D01*
G37*
G36*
X442820Y174907D02*
X453249Y164478D01*
X451128Y162357D01*
X440699Y172786D01*
X442820Y174907D01*
G37*
G36*
X446355Y178442D02*
X456784Y168013D01*
X454663Y165892D01*
X444234Y176321D01*
X446355Y178442D01*
G37*
G36*
X449891Y181978D02*
X460320Y171549D01*
X458199Y169428D01*
X447770Y179857D01*
X449891Y181978D01*
G37*
G36*
X453426Y185514D02*
X463855Y175085D01*
X461734Y172964D01*
X451305Y183393D01*
X453426Y185514D01*
G37*
G36*
X456962Y189049D02*
X467391Y178620D01*
X465270Y176499D01*
X454841Y186928D01*
X456962Y189049D01*
G37*
G36*
X460497Y192585D02*
X470926Y182156D01*
X468805Y180035D01*
X458376Y190464D01*
X460497Y192585D01*
G37*
G36*
X464033Y196120D02*
X474462Y185691D01*
X472341Y183570D01*
X461912Y193999D01*
X464033Y196120D01*
G37*
G36*
X467569Y199656D02*
X477998Y189227D01*
X475877Y187106D01*
X465448Y197535D01*
X467569Y199656D01*
G37*
G36*
X471104Y203191D02*
X481533Y192762D01*
X479412Y190641D01*
X468983Y201070D01*
X471104Y203191D01*
G37*
G36*
X474640Y206727D02*
X485069Y196298D01*
X482948Y194177D01*
X472519Y204606D01*
X474640Y206727D01*
G37*
G36*
X478175Y210262D02*
X488604Y199833D01*
X486483Y197712D01*
X476054Y208141D01*
X478175Y210262D01*
G37*
G36*
X481711Y213798D02*
X492140Y203369D01*
X490019Y201248D01*
X479590Y211677D01*
X481711Y213798D01*
G37*
G36*
X485246Y217333D02*
X495675Y206904D01*
X493554Y204783D01*
X483125Y215212D01*
X485246Y217333D01*
G37*
G36*
X488782Y220869D02*
X499211Y210440D01*
X497090Y208319D01*
X486661Y218748D01*
X488782Y220869D01*
G37*
G36*
X492317Y224404D02*
X502746Y213975D01*
X500625Y211854D01*
X490196Y222283D01*
X492317Y224404D01*
G37*
G36*
X495853Y227940D02*
X506282Y217511D01*
X504161Y215390D01*
X493732Y225819D01*
X495853Y227940D01*
G37*
G36*
X499388Y231475D02*
X509817Y221046D01*
X507696Y218925D01*
X497267Y229354D01*
X499388Y231475D01*
G37*
G36*
X497267Y245626D02*
X507696Y256055D01*
X509817Y253934D01*
X499388Y243505D01*
X497267Y245626D01*
G37*
G36*
X493732Y249161D02*
X504161Y259590D01*
X506282Y257469D01*
X495853Y247040D01*
X493732Y249161D01*
G37*
G36*
X490196Y252697D02*
X500625Y263126D01*
X502746Y261005D01*
X492317Y250576D01*
X490196Y252697D01*
G37*
G36*
X486661Y256232D02*
X497090Y266661D01*
X499211Y264540D01*
X488782Y254111D01*
X486661Y256232D01*
G37*
G36*
X483125Y259768D02*
X493554Y270197D01*
X495675Y268076D01*
X485246Y257647D01*
X483125Y259768D01*
G37*
G36*
X479590Y263303D02*
X490019Y273732D01*
X492140Y271611D01*
X481711Y261182D01*
X479590Y263303D01*
G37*
G36*
X476054Y266839D02*
X486483Y277268D01*
X488604Y275147D01*
X478175Y264718D01*
X476054Y266839D01*
G37*
G36*
X472519Y270374D02*
X482948Y280803D01*
X485069Y278682D01*
X474640Y268253D01*
X472519Y270374D01*
G37*
G36*
X468983Y273910D02*
X479412Y284339D01*
X481533Y282218D01*
X471104Y271789D01*
X468983Y273910D01*
G37*
G36*
X465448Y277445D02*
X475877Y287874D01*
X477998Y285753D01*
X467569Y275324D01*
X465448Y277445D01*
G37*
G36*
X461912Y280981D02*
X472341Y291410D01*
X474462Y289289D01*
X464033Y278860D01*
X461912Y280981D01*
G37*
G36*
X458376Y284516D02*
X468805Y294945D01*
X470926Y292824D01*
X460497Y282395D01*
X458376Y284516D01*
G37*
G36*
X454841Y288052D02*
X465270Y298481D01*
X467391Y296360D01*
X456962Y285931D01*
X454841Y288052D01*
G37*
G36*
X451305Y291587D02*
X461734Y302016D01*
X463855Y299895D01*
X453426Y289466D01*
X451305Y291587D01*
G37*
G36*
X447770Y295123D02*
X458199Y305552D01*
X460320Y303431D01*
X449891Y293002D01*
X447770Y295123D01*
G37*
G36*
X444234Y298659D02*
X454663Y309088D01*
X456784Y306967D01*
X446355Y296538D01*
X444234Y298659D01*
G37*
G36*
X440699Y302194D02*
X451128Y312623D01*
X453249Y310502D01*
X442820Y300073D01*
X440699Y302194D01*
G37*
G36*
X437163Y305730D02*
X447592Y316159D01*
X449713Y314038D01*
X439284Y303609D01*
X437163Y305730D01*
G37*
G36*
X433628Y309265D02*
X444057Y319694D01*
X446178Y317573D01*
X435749Y307144D01*
X433628Y309265D01*
G37*
G36*
X430092Y312801D02*
X440521Y323230D01*
X442642Y321109D01*
X432213Y310680D01*
X430092Y312801D01*
G37*
G36*
X426557Y316336D02*
X436986Y326765D01*
X439107Y324644D01*
X428678Y314215D01*
X426557Y316336D01*
G37*
G36*
X423021Y319872D02*
X433450Y330301D01*
X435571Y328180D01*
X425142Y317751D01*
X423021Y319872D01*
G37*
G36*
X419486Y323407D02*
X429915Y333836D01*
X432036Y331715D01*
X421607Y321286D01*
X419486Y323407D01*
G37*
G36*
X415950Y326943D02*
X426379Y337372D01*
X428500Y335251D01*
X418071Y324822D01*
X415950Y326943D01*
G37*
G36*
X412415Y330478D02*
X422844Y340907D01*
X424965Y338786D01*
X414536Y328357D01*
X412415Y330478D01*
G37*
G36*
X389956Y340907D02*
X400385Y330478D01*
X398264Y328357D01*
X387835Y338786D01*
X389956Y340907D01*
G37*
G36*
X386421Y337372D02*
X396850Y326943D01*
X394729Y324822D01*
X384300Y335251D01*
X386421Y337372D01*
G37*
G36*
X382885Y333836D02*
X393314Y323407D01*
X391193Y321286D01*
X380764Y331715D01*
X382885Y333836D01*
G37*
G36*
X379350Y330301D02*
X389779Y319872D01*
X387658Y317751D01*
X377229Y328180D01*
X379350Y330301D01*
G37*
G36*
X375814Y326765D02*
X386243Y316336D01*
X384122Y314215D01*
X373693Y324644D01*
X375814Y326765D01*
G37*
G36*
X372279Y323230D02*
X382708Y312801D01*
X380587Y310680D01*
X370158Y321109D01*
X372279Y323230D01*
G37*
G36*
X368743Y319694D02*
X379172Y309265D01*
X377051Y307144D01*
X366622Y317573D01*
X368743Y319694D01*
G37*
G36*
X365208Y316159D02*
X375637Y305730D01*
X373516Y303609D01*
X363087Y314038D01*
X365208Y316159D01*
G37*
G36*
X361672Y312623D02*
X372101Y302194D01*
X369980Y300073D01*
X359551Y310502D01*
X361672Y312623D01*
G37*
G36*
X358137Y309088D02*
X368566Y298659D01*
X366445Y296538D01*
X356016Y306967D01*
X358137Y309088D01*
G37*
G36*
X354601Y305552D02*
X365030Y295123D01*
X362909Y293002D01*
X352480Y303431D01*
X354601Y305552D01*
G37*
G36*
X351066Y302016D02*
X361495Y291587D01*
X359374Y289466D01*
X348945Y299895D01*
X351066Y302016D01*
G37*
G36*
X347530Y298481D02*
X357959Y288052D01*
X355838Y285931D01*
X345409Y296360D01*
X347530Y298481D01*
G37*
G36*
X343995Y294945D02*
X354424Y284516D01*
X352303Y282395D01*
X341874Y292824D01*
X343995Y294945D01*
G37*
G36*
X340459Y291410D02*
X350888Y280981D01*
X348767Y278860D01*
X338338Y289289D01*
X340459Y291410D01*
G37*
G36*
X336923Y287874D02*
X347352Y277445D01*
X345231Y275324D01*
X334802Y285753D01*
X336923Y287874D01*
G37*
G36*
X333388Y284339D02*
X343817Y273910D01*
X341696Y271789D01*
X331267Y282218D01*
X333388Y284339D01*
G37*
G36*
X329852Y280803D02*
X340281Y270374D01*
X338160Y268253D01*
X327731Y278682D01*
X329852Y280803D01*
G37*
G36*
X326317Y277268D02*
X336746Y266839D01*
X334625Y264718D01*
X324196Y275147D01*
X326317Y277268D01*
G37*
G36*
X322781Y273732D02*
X333210Y263303D01*
X331089Y261182D01*
X320660Y271611D01*
X322781Y273732D01*
G37*
G36*
X319246Y270197D02*
X329675Y259768D01*
X327554Y257647D01*
X317125Y268076D01*
X319246Y270197D01*
G37*
G36*
X315710Y266661D02*
X326139Y256232D01*
X324018Y254111D01*
X313589Y264540D01*
X315710Y266661D01*
G37*
G36*
X312175Y263126D02*
X322604Y252697D01*
X320483Y250576D01*
X310054Y261005D01*
X312175Y263126D01*
G37*
G36*
X308639Y259590D02*
X319068Y249161D01*
X316947Y247040D01*
X306518Y257469D01*
X308639Y259590D01*
G37*
G36*
X305104Y256055D02*
X315533Y245626D01*
X313412Y243505D01*
X302983Y253934D01*
X305104Y256055D01*
G37*
G36*
X302983Y221046D02*
X313412Y231475D01*
X315533Y229354D01*
X305104Y218925D01*
X302983Y221046D01*
G37*
G36*
X306518Y217511D02*
X316947Y227940D01*
X319068Y225819D01*
X308639Y215390D01*
X306518Y217511D01*
G37*
G36*
X310054Y213975D02*
X320483Y224404D01*
X322604Y222283D01*
X312175Y211854D01*
X310054Y213975D01*
G37*
G36*
X313589Y210440D02*
X324018Y220869D01*
X326139Y218748D01*
X315710Y208319D01*
X313589Y210440D01*
G37*
G36*
X317125Y206904D02*
X327554Y217333D01*
X329675Y215212D01*
X319246Y204783D01*
X317125Y206904D01*
G37*
G36*
X320660Y203369D02*
X331089Y213798D01*
X333210Y211677D01*
X322781Y201248D01*
X320660Y203369D01*
G37*
G36*
X324196Y199833D02*
X334625Y210262D01*
X336746Y208141D01*
X326317Y197712D01*
X324196Y199833D01*
G37*
G36*
X327731Y196298D02*
X338160Y206727D01*
X340281Y204606D01*
X329852Y194177D01*
X327731Y196298D01*
G37*
G36*
X331267Y192762D02*
X341696Y203191D01*
X343817Y201070D01*
X333388Y190641D01*
X331267Y192762D01*
G37*
G36*
X334802Y189227D02*
X345231Y199656D01*
X347352Y197535D01*
X336923Y187106D01*
X334802Y189227D01*
G37*
G36*
X338338Y185691D02*
X348767Y196120D01*
X350888Y193999D01*
X340459Y183570D01*
X338338Y185691D01*
G37*
G36*
X341874Y182156D02*
X352303Y192585D01*
X354424Y190464D01*
X343995Y180035D01*
X341874Y182156D01*
G37*
G36*
X345409Y178620D02*
X355838Y189049D01*
X357959Y186928D01*
X347530Y176499D01*
X345409Y178620D01*
G37*
G36*
X348945Y175085D02*
X359374Y185514D01*
X361495Y183393D01*
X351066Y172964D01*
X348945Y175085D01*
G37*
G36*
X352480Y171549D02*
X362909Y181978D01*
X365030Y179857D01*
X354601Y169428D01*
X352480Y171549D01*
G37*
G36*
X356016Y168013D02*
X366445Y178442D01*
X368566Y176321D01*
X358137Y165892D01*
X356016Y168013D01*
G37*
G36*
X359551Y164478D02*
X369980Y174907D01*
X372101Y172786D01*
X361672Y162357D01*
X359551Y164478D01*
G37*
G36*
X363087Y160942D02*
X373516Y171371D01*
X375637Y169250D01*
X365208Y158821D01*
X363087Y160942D01*
G37*
G36*
X366622Y157407D02*
X377051Y167836D01*
X379172Y165715D01*
X368743Y155286D01*
X366622Y157407D01*
G37*
G36*
X370158Y153871D02*
X380587Y164300D01*
X382708Y162179D01*
X372279Y151750D01*
X370158Y153871D01*
G37*
G36*
X373693Y150336D02*
X384122Y160765D01*
X386243Y158644D01*
X375814Y148215D01*
X373693Y150336D01*
G37*
G36*
X377229Y146800D02*
X387658Y157229D01*
X389779Y155108D01*
X379350Y144679D01*
X377229Y146800D01*
G37*
G36*
X380764Y143265D02*
X391193Y153694D01*
X393314Y151573D01*
X382885Y141144D01*
X380764Y143265D01*
G37*
G36*
X384300Y139729D02*
X394729Y150158D01*
X396850Y148037D01*
X386421Y137608D01*
X384300Y139729D01*
G37*
G36*
X387835Y136194D02*
X398264Y146623D01*
X400385Y144502D01*
X389956Y134073D01*
X387835Y136194D01*
G37*
D15*
X275463Y443900D03*
X275463Y438900D03*
X275463Y433900D03*
X275463Y428900D03*
X275463Y423900D03*
X275463Y418900D03*
X275463Y413900D03*
X275463Y408900D03*
X275463Y403900D03*
X275463Y398900D03*
X275463Y393900D03*
X275463Y388900D03*
X275463Y383900D03*
X275463Y378900D03*
X275463Y373900D03*
X275463Y368900D03*
X410337Y368900D03*
X410337Y373900D03*
X410337Y378900D03*
X410337Y383900D03*
X410337Y388900D03*
X410337Y393900D03*
X410337Y398900D03*
X410337Y403900D03*
X410337Y408900D03*
X410337Y413900D03*
X410337Y418900D03*
X410337Y423900D03*
X410337Y428900D03*
X410337Y433900D03*
X410337Y438900D03*
X410337Y443900D03*
D16*
X528920Y259461D03*
X533920Y259461D03*
X538920Y259461D03*
X543920Y259461D03*
X548920Y259461D03*
X553920Y259461D03*
X558920Y259461D03*
X563920Y259461D03*
X568920Y259461D03*
X573920Y259461D03*
X578920Y259461D03*
X583920Y259461D03*
X588920Y259461D03*
X593920Y259461D03*
X598920Y259461D03*
X603920Y259461D03*
X603920Y388239D03*
X598920Y388239D03*
X593920Y388239D03*
X588920Y388239D03*
X583920Y388239D03*
X578920Y388239D03*
X573920Y388239D03*
X568920Y388239D03*
X563920Y388239D03*
X558920Y388239D03*
X553920Y388239D03*
X548920Y388239D03*
X543920Y388239D03*
X538920Y388239D03*
X533920Y388239D03*
X528920Y388239D03*
D17*
X33900Y444500D03*
X16900Y444500D03*
X55000Y292100D03*
X72000Y292100D03*
X42300Y241300D03*
X59300Y241300D03*
G36*
X468053Y352916D02*
X460276Y360693D01*
X467347Y367764D01*
X475124Y359987D01*
X468053Y352916D01*
G37*
G36*
X480073Y340896D02*
X472296Y348673D01*
X479367Y355744D01*
X487144Y347967D01*
X480073Y340896D01*
G37*
D18*
X367030Y338210D03*
X367030Y355210D03*
D19*
X22480Y467720D03*
X101980Y467720D03*
X22480Y512720D03*
X101980Y512720D03*
D18*
X20710Y120260D03*
X20710Y103260D03*
X57540Y20710D03*
X57540Y37710D03*
D20*
X33630Y288591D03*
X24130Y288591D03*
X14630Y288591D03*
X14630Y262589D03*
X33630Y262589D03*
D21*
X26600Y317500D03*
X49600Y317500D03*
X229800Y25400D03*
X252800Y25400D03*
D17*
G36*
X291153Y276750D02*
X298930Y268973D01*
X291859Y261902D01*
X284082Y269679D01*
X291153Y276750D01*
G37*
G36*
X279133Y288770D02*
X286910Y280993D01*
X279839Y273922D01*
X272062Y281699D01*
X279133Y288770D01*
G37*
G36*
X410456Y354907D02*
X418233Y362684D01*
X425304Y355613D01*
X417527Y347836D01*
X410456Y354907D01*
G37*
G36*
X398436Y342887D02*
X406213Y350664D01*
X413284Y343593D01*
X405507Y335816D01*
X398436Y342887D01*
G37*
X55390Y267970D03*
X72390Y267970D03*
X118890Y425450D03*
X135890Y425450D03*
G36*
X197384Y433763D02*
X189607Y425986D01*
X182536Y433057D01*
X190313Y440834D01*
X197384Y433763D01*
G37*
G36*
X209404Y445783D02*
X201627Y438006D01*
X194556Y445077D01*
X202333Y452854D01*
X209404Y445783D01*
G37*
G36*
X291913Y135746D02*
X284136Y143523D01*
X291207Y150594D01*
X298984Y142817D01*
X291913Y135746D01*
G37*
G36*
X303933Y123726D02*
X296156Y131503D01*
X303227Y138574D01*
X311004Y130797D01*
X303933Y123726D01*
G37*
G36*
X168174Y275013D02*
X160397Y267236D01*
X153326Y274307D01*
X161103Y282084D01*
X168174Y275013D01*
G37*
G36*
X180194Y287033D02*
X172417Y279256D01*
X165346Y286327D01*
X173123Y294104D01*
X180194Y287033D01*
G37*
G36*
X106377Y48404D02*
X114154Y40627D01*
X107083Y33556D01*
X99306Y41333D01*
X106377Y48404D01*
G37*
G36*
X94357Y60424D02*
X102134Y52647D01*
X95063Y45576D01*
X87286Y53353D01*
X94357Y60424D01*
G37*
D18*
X660400Y148200D03*
X660400Y131200D03*
D17*
X46990Y178308D03*
X29990Y178308D03*
G36*
X194556Y41217D02*
X202333Y48994D01*
X209404Y41923D01*
X201627Y34146D01*
X194556Y41217D01*
G37*
G36*
X182536Y29197D02*
X190313Y36974D01*
X197384Y29903D01*
X189607Y22126D01*
X182536Y29197D01*
G37*
G36*
X279213Y123046D02*
X271436Y130823D01*
X278507Y137894D01*
X286284Y130117D01*
X279213Y123046D01*
G37*
G36*
X291233Y111026D02*
X283456Y118803D01*
X290527Y125874D01*
X298304Y118097D01*
X291233Y111026D01*
G37*
G36*
X180874Y262313D02*
X173097Y254536D01*
X166026Y261607D01*
X173803Y269384D01*
X180874Y262313D01*
G37*
G36*
X192894Y274333D02*
X185117Y266556D01*
X178046Y273627D01*
X185823Y281404D01*
X192894Y274333D01*
G37*
G36*
X119077Y61104D02*
X126854Y53327D01*
X119783Y46256D01*
X112006Y54033D01*
X119077Y61104D01*
G37*
G36*
X107057Y73124D02*
X114834Y65347D01*
X107763Y58276D01*
X99986Y66053D01*
X107057Y73124D01*
G37*
G36*
X452813Y337676D02*
X445036Y345453D01*
X452107Y352524D01*
X459884Y344747D01*
X452813Y337676D01*
G37*
G36*
X464833Y325656D02*
X457056Y333433D01*
X464127Y340504D01*
X471904Y332727D01*
X464833Y325656D01*
G37*
G36*
X300297Y239920D02*
X308074Y232143D01*
X301003Y225072D01*
X293226Y232849D01*
X300297Y239920D01*
G37*
G36*
X288277Y251940D02*
X296054Y244163D01*
X288983Y237092D01*
X281206Y244869D01*
X288277Y251940D01*
G37*
G36*
X350376Y150437D02*
X358153Y158214D01*
X365224Y151143D01*
X357447Y143366D01*
X350376Y150437D01*
G37*
G36*
X338356Y138417D02*
X346133Y146194D01*
X353204Y139123D01*
X345427Y131346D01*
X338356Y138417D01*
G37*
G36*
X397146Y108897D02*
X389369Y101120D01*
X382298Y108191D01*
X390075Y115968D01*
X397146Y108897D01*
G37*
G36*
X409166Y120917D02*
X401389Y113140D01*
X394318Y120211D01*
X402095Y127988D01*
X409166Y120917D01*
G37*
X455050Y139700D03*
X472050Y139700D03*
X511438Y206502D03*
X528438Y206502D03*
G36*
X513773Y233536D02*
X505996Y241313D01*
X513067Y248384D01*
X520844Y240607D01*
X513773Y233536D01*
G37*
G36*
X525793Y221516D02*
X518016Y229293D01*
X525087Y236364D01*
X532864Y228587D01*
X525793Y221516D01*
G37*
D18*
X563000Y240910D03*
X563000Y223910D03*
D17*
X256540Y406400D03*
X239540Y406400D03*
X115062Y315976D03*
X98062Y315976D03*
D18*
X223910Y345050D03*
X223910Y328050D03*
D22*
X625158Y397566D02*
X625158Y404566D01*
X625158Y397566D02*
X618158Y397566D01*
X618158Y404566D01*
X625158Y404566D01*
X625158Y400416D02*
X618158Y400416D01*
X618158Y403266D02*
X625158Y403266D01*
X642698Y404566D02*
X642698Y397566D01*
X635698Y397566D01*
X635698Y404566D01*
X642698Y404566D01*
X642698Y400416D02*
X635698Y400416D01*
X635698Y403266D02*
X642698Y403266D01*
D18*
X646176Y436508D03*
X646176Y453508D03*
X15240Y243450D03*
X15240Y226450D03*
X116840Y481720D03*
X116840Y498720D03*
M02*
